<?xml version="1.0" encoding="utf-8"?>
<!-- Generator: Adobe Illustrator 17.0.0, SVG Export Plug-In . SVG Version: 6.00 Build 0)  -->
<!DOCTYPE svg PUBLIC "-//W3C//DTD SVG 1.1//EN" "http://www.w3.org/Graphics/SVG/1.1/DTD/svg11.dtd">
<svg version="1.1" id="Capa_1" xmlns="http://www.w3.org/2000/svg" xmlns:xlink="http://www.w3.org/1999/xlink" x="0px" y="0px"
	 width="64px" height="64px" viewBox="0 0 64 64" enable-background="new 0 0 64 64" xml:space="preserve">
<path d="M51.088,19H12.911C10.751,19,9,20.751,9,22.911v15.178C9,40.249,10.751,42,12.911,42h21.52l2.291,6.123
	c0.238,0.637,0.784,1.109,1.449,1.254c0.141,0.031,0.283,0.046,0.424,0.046c0.525,0,1.035-0.207,1.414-0.586l1.555-1.555
	l5.039,5.039c0.391,0.391,0.902,0.586,1.414,0.586c0.512,0,1.024-0.195,1.414-0.586l2.766-2.766c0.781-0.781,0.781-2.047,0-2.828
	L47.47,42h3.619C53.249,42,55,40.249,55,38.089V22.911C55,20.751,53.249,19,51.088,19z M48.36,37.658l-4.03,4.03L44.642,42
	l6.141,6.141l-2.766,2.766l-6.453-6.453l-2.969,2.969L36.566,42l-3.809-10.181L48.36,37.658z M19,39h-4V23h4V39z"/>
</svg>
