<?xml version="1.0" encoding="utf-8"?>
<!-- Generator: Adobe Illustrator 17.0.0, SVG Export Plug-In . SVG Version: 6.00 Build 0)  -->
<!DOCTYPE svg PUBLIC "-//W3C//DTD SVG 1.1//EN" "http://www.w3.org/Graphics/SVG/1.1/DTD/svg11.dtd">
<svg version="1.1" id="Capa_1" xmlns="http://www.w3.org/2000/svg" xmlns:xlink="http://www.w3.org/1999/xlink" x="0px" y="0px"
	 width="34.332px" height="23.5px" viewBox="0 0 34.332 23.5" enable-background="new 0 0 34.332 23.5" xml:space="preserve">
<path d="M9.08,10.402h16.234v1.725H9.08V10.402z M18.273,13.707H9.08v1.724h9.193V13.707z M9.08,18.733h16.234V17.01H9.08V18.733z
	 M19.876,15.431h5.438v-1.724h-5.438V15.431z M34.333,14.632c0,4.772-3.736,8.661-8.507,8.852c-0.064,0.009-0.194,0.017-0.327,0.017
	H6.188C2.736,23.5,0,20.765,0,17.402c0-2.641,1.686-4.937,4.119-5.766c-0.009-0.186-0.014-0.369-0.014-0.551
	C4.105,4.973,9.077,0,15.189,0c4.058,0,7.803,2.248,9.735,5.783c0.185-0.013,0.364-0.019,0.541-0.019
	C30.354,5.764,34.332,9.742,34.333,14.632z M25.683,21.49c3.757-0.153,6.65-3.163,6.65-6.858c-0.001-3.787-3.082-6.868-6.868-6.868
	c-0.302,0-0.62,0.025-0.975,0.078l-0.739,0.11l-0.314-0.679C21.951,4.07,18.714,2,15.189,2c-5.009,0-9.084,4.076-9.084,9.086
	c0,0.381,0.026,0.777,0.078,1.176l0.122,0.944l-0.937,0.168C3.417,13.725,2,15.419,2,17.402c0,2.26,1.838,4.098,4.098,4.098h19.401
	C25.562,21.5,25.623,21.496,25.683,21.49z"/>
</svg>
