<?xml version="1.0" encoding="utf-8"?>
<!-- Generator: Adobe Illustrator 16.0.4, SVG Export Plug-In . SVG Version: 6.00 Build 0)  -->
<!DOCTYPE svg PUBLIC "-//W3C//DTD SVG 1.1//EN" "http://www.w3.org/Graphics/SVG/1.1/DTD/svg11.dtd">
<svg version="1.1" id="Capa_1" xmlns="http://www.w3.org/2000/svg" xmlns:xlink="http://www.w3.org/1999/xlink" x="0px" y="0px"
	 width="64px" height="64px" viewBox="0 0 64 64" enable-background="new 0 0 64 64" xml:space="preserve">
<path d="M32.292,5.645c-13.255,0-24,10.745-24,24c0,13.255,10.745,24,24,24c0.672,0,1.341-0.035,2.007-0.094
	c1.105-0.097,1.335,0.43,0.449,1.174c-2.137,1.793-4.591,3.229-7.291,3.816c-1.13,0.245-1.144,0.404,0.011,0.45
	c6.108,0.235,12.591-1.915,17.375-5.546c7.155-5.43,11.449-14.871,11.449-23.801C56.292,16.391,45.546,5.645,32.292,5.645z M34,37
	H18c-0.829,0-1.5-0.672-1.5-1.5S17.171,34,18,34h16c0.828,0,1.5,0.672,1.5,1.5S34.828,37,34,37z M46,31H18
	c-0.829,0-1.5-0.671-1.5-1.5S17.171,28,18,28h28c0.828,0,1.5,0.671,1.5,1.5S46.828,31,46,31z M46,25H18c-0.829,0-1.5-0.671-1.5-1.5
	S17.171,22,18,22h28c0.828,0,1.5,0.671,1.5,1.5S46.828,25,46,25z"/>
</svg>
