<?xml version="1.0" encoding="utf-8"?>
<!-- Generator: Adobe Illustrator 17.0.0, SVG Export Plug-In . SVG Version: 6.00 Build 0)  -->
<!DOCTYPE svg PUBLIC "-//W3C//DTD SVG 1.1//EN" "http://www.w3.org/Graphics/SVG/1.1/DTD/svg11.dtd">
<svg version="1.1" id="Capa_1" xmlns="http://www.w3.org/2000/svg" xmlns:xlink="http://www.w3.org/1999/xlink" x="0px" y="0px"
	 width="29.338px" height="26.127px" viewBox="0 0 29.338 26.127" enable-background="new 0 0 29.338 26.127" xml:space="preserve">
<path d="M7.764,25.393c-0.771,0-1.6-0.584-1.6-1.866v-2.12H2.915c-1.149,0-2.085-0.935-2.085-2.084V2.817
	c0-1.149,0.936-2.085,2.085-2.085h23.508c1.149,0,2.085,0.936,2.085,2.086v16.503c0,1.15-0.936,2.086-2.085,2.086H13.722
	L8.99,24.941C8.59,25.241,8.177,25.393,7.764,25.393z M2.915,2.732c-0.047,0-0.085,0.038-0.085,0.085v16.505
	c0,0.047,0.037,0.084,0.085,0.084h5.249v3.656l4.894-3.655h13.365c0.047,0,0.085-0.038,0.085-0.086V2.818
	c0-0.048-0.037-0.086-0.085-0.086H2.915z M24.894,4.212H4.309v13.619h5.224v2.192l3.165-2.192h12.195V4.212z"/>
</svg>
