<?xml version="1.0" encoding="utf-8"?>
<!-- Generator: Adobe Illustrator 17.0.0, SVG Export Plug-In . SVG Version: 6.00 Build 0)  -->
<!DOCTYPE svg PUBLIC "-//W3C//DTD SVG 1.1//EN" "http://www.w3.org/Graphics/SVG/1.1/DTD/svg11.dtd">
<svg version="1.1" id="Capa_1" xmlns="http://www.w3.org/2000/svg" xmlns:xlink="http://www.w3.org/1999/xlink" x="0px" y="0px"
	 width="29.093px" height="22.907px" viewBox="0 0 29.093 22.907" enable-background="new 0 0 29.093 22.907" xml:space="preserve">
<path d="M28.661,0.571c-0.385-0.434-0.947-0.643-1.588-0.549L1.69,3.731C1.158,3.809,0.691,4.092,0.376,4.526
	C0.062,4.96-0.061,5.49,0.029,6.019l1.664,9.715c0.171,0.999,1.062,1.813,2.07,1.895l10.214,0.823l-0.292,2.776
	c-0.096,0.648,0.108,1.046,0.297,1.265c0.228,0.264,0.56,0.415,0.912,0.415c0.356,0,0.707-0.146,1.017-0.414l4.886-3.922l4.41-0.02
	c1.061,0,1.988-0.824,2.112-1.874L29.08,1.979C29.143,1.447,28.995,0.947,28.661,0.571z M25.332,16.442
	c-0.005,0.042-0.083,0.11-0.126,0.11h-4.09l-0.337-0.004c-0.388,0-0.583,0.094-0.853,0.222l-4.103,3.229l0.191-1.82
	c0.068-0.467-0.021-0.857-0.265-1.162c-0.374-0.466-0.914-0.505-1.309-0.533L3.923,15.634c-0.093-0.007-0.244-0.146-0.259-0.238
	L1.98,5.709l25.077-3.665L25.332,16.442z"/>
</svg>
