<?xml version="1.0" encoding="utf-8"?>
<!-- Generator: Adobe Illustrator 17.0.0, SVG Export Plug-In . SVG Version: 6.00 Build 0)  -->
<!DOCTYPE svg PUBLIC "-//W3C//DTD SVG 1.1//EN" "http://www.w3.org/Graphics/SVG/1.1/DTD/svg11.dtd">
<svg version="1.1" id="Capa_1" xmlns="http://www.w3.org/2000/svg" xmlns:xlink="http://www.w3.org/1999/xlink" x="0px" y="0px"
	 width="29.338px" height="26.127px" viewBox="0 0 29.338 26.127" enable-background="new 0 0 29.338 26.127" xml:space="preserve">
<path d="M5.103,14.278H6.62c-0.018,0.071-0.044,0.129-0.078,0.177c-0.048,0.064-0.124,0.13-0.221,0.187
	c-0.091,0.055-0.264,0.138-0.571,0.222l-0.649,0.177v3.154l1.022-0.167c1.147-0.188,2.087-0.654,2.792-1.386
	c0.736-0.762,1.109-1.734,1.109-2.892V9.448H5.103V14.278z M6.864,11.209h1.401v1.308H6.864V11.209z M10.387,14.278h1.474
	c-0.025,0.095-0.058,0.176-0.099,0.244c-0.001,0.002-0.12,0.175-0.73,0.343l-0.647,0.177v3.166l1.032-0.181
	c1.126-0.198,2.055-0.665,2.762-1.39c0.738-0.758,1.112-1.728,1.112-2.887V9.449l-4.904-0.002V14.278z M12.148,11.209h1.381v1.307
	h-1.381V11.209z M25.686,1.561H3.649c-0.508,0-0.985,0.198-1.344,0.558C1.947,2.477,1.751,2.954,1.752,3.459v15.473
	c0,1.046,0.849,1.897,1.897,1.897h11.927l4.451,3.325c0.365,0.273,0.74,0.411,1.114,0.411c0.695,0,1.443-0.53,1.443-1.692v-2.045
	h3.102c1.047,0,1.899-0.851,1.899-1.897V3.458C27.585,2.412,26.732,1.561,25.686,1.561z M25.824,18.931
	c0,0.076-0.06,0.136-0.138,0.136h-4.863v3.484l-4.662-3.483h-0.292H3.646c-0.073,0-0.132-0.061-0.132-0.136V3.456
	c0-0.046,0.021-0.077,0.039-0.095c0.018-0.018,0.049-0.04,0.096-0.04h22.037c0.076,0,0.138,0.061,0.138,0.136V18.931z"/>
</svg>
