<?xml version="1.0" encoding="utf-8"?>
<!-- Generator: Adobe Illustrator 17.0.0, SVG Export Plug-In . SVG Version: 6.00 Build 0)  -->
<!DOCTYPE svg PUBLIC "-//W3C//DTD SVG 1.1//EN" "http://www.w3.org/Graphics/SVG/1.1/DTD/svg11.dtd">
<svg version="1.1" id="Capa_1" xmlns="http://www.w3.org/2000/svg" xmlns:xlink="http://www.w3.org/1999/xlink" x="0px" y="0px"
	 width="64px" height="64px" viewBox="0 0 64 64" enable-background="new 0 0 64 64" xml:space="preserve">
<path fill="#222221" d="M29.019,41.834c1.397,0.197,2.708,0.388,3.944,0.71c-0.243,0.297-0.502,0.583-0.777,0.855
	c-6.271,6.197-14.298,2.48-14.298,2.48s-9.597-2.903-7.736-10.018c1.487-5.683,5.089-10.276-1.137-17.861
	c0,0,5.129,0.579,10.794,1.295c-1.717,3.231-2.025,6.298-2.073,7.032c-0.763,4.485-0.147,13.199,7.581,14.887
	C26.58,41.489,27.821,41.664,29.019,41.834z M43.625,15.256c0,0-7.756-3.754-14.238-1.603c-1.114,0.37-2.1,0.836-2.972,1.37
	c-2.056,1.26-3.475,2.9-4.463,4.545c-2.088,3.48-2.226,6.986-2.226,6.986s-1.962,10.962,6.019,12.705
	c2.866,0.626,5.727,0.725,8.408,1.543c3.282,1.002,6.293,3.087,8.699,8.583c0,0,4.603-12.278,7.309-20.35
	C53.388,19.411,43.625,15.256,43.625,15.256z"/>
</svg>
