<?xml version="1.0" encoding="utf-8"?>
<!-- Generator: Adobe Illustrator 16.0.4, SVG Export Plug-In . SVG Version: 6.00 Build 0)  -->
<!DOCTYPE svg PUBLIC "-//W3C//DTD SVG 1.1//EN" "http://www.w3.org/Graphics/SVG/1.1/DTD/svg11.dtd">
<svg version="1.1" id="Capa_1" xmlns="http://www.w3.org/2000/svg" xmlns:xlink="http://www.w3.org/1999/xlink" x="0px" y="0px"
	 width="30.752px" height="27.172px" viewBox="0 0 30.752 27.172" enable-background="new 0 0 30.752 27.172" xml:space="preserve">
<path d="M27.942,5.886h-8.562C17.76,2.416,14.246,0,10.17,0C4.562,0,0,4.562,0,10.17c0,5.607,4.562,10.168,10.17,10.168
	c0.81,0,1.6-0.104,2.365-0.287v0.808L8.68,27.172l7.496-3.069h11.769c1.549,0,2.809-1.261,2.809-2.808V8.695
	C30.752,7.146,29.492,5.886,27.942,5.886z M10.17,18.338c-4.504,0-8.17-3.664-8.17-8.169c0-4.505,3.666-8.17,8.17-8.17
	c4.506,0,8.17,3.665,8.17,8.17c0,1.02-0.192,2.029-0.575,2.997l-0.23,0.584l1.904,2.062l-2.982-0.41l-0.355,0.373
	C14.537,17.428,12.432,18.338,10.17,18.338L10.17,18.338z M28.75,21.293c0,0.447-0.362,0.809-0.81,0.809H15.779l-2.217,0.91
	l0.971-1.59v-2.075c0.962-0.46,1.856-1.065,2.649-1.825l7.51,1.032l-4.854-5.253c0.332-1.018,0.5-2.069,0.5-3.132
	c0-0.786-0.099-1.549-0.268-2.284h7.869c0.447,0,0.809,0.363,0.809,0.809L28.75,21.293L28.75,21.293z"/>
<circle cx="15.09" cy="10.169" r="1.407"/>
<circle cx="5.16" cy="10.169" r="1.407"/>
<circle cx="10.125" cy="10.169" r="1.407"/>
</svg>
