<?xml version="1.0" encoding="utf-8"?>
<!-- Generator: Adobe Illustrator 17.0.0, SVG Export Plug-In . SVG Version: 6.00 Build 0)  -->
<!DOCTYPE svg PUBLIC "-//W3C//DTD SVG 1.1//EN" "http://www.w3.org/Graphics/SVG/1.1/DTD/svg11.dtd">
<svg version="1.1" id="Capa_1" xmlns="http://www.w3.org/2000/svg" xmlns:xlink="http://www.w3.org/1999/xlink" x="0px" y="0px"
	 width="33.926px" height="24.125px" viewBox="0 0 33.926 24.125" enable-background="new 0 0 33.926 24.125" xml:space="preserve">
<path d="M0,10.875C0,16.871,6.814,21.75,15.191,21.75c1.104,0,2.189-0.094,3.256-0.262c1.007-0.039,1.988-0.138,2.938-0.294
	c1.66,1.47,4.236,2.931,7.978,2.931l1.906-0.004l-0.021-0.029c0.84,0.018,1.721,0.009,2.678,0.008
	c-2.528-3.506-3.192-5.777-3.363-6.833c2.102-1.806,3.363-4.052,3.363-6.496c0-5.935-7.354-10.745-16.422-10.745
	c-0.316,0-0.629,0.014-0.94,0.023C16.111,0.021,15.655,0,15.192,0C6.814,0,0,4.877,0,10.875z M2,10.875C2,5.98,7.918,2,15.191,2
	s13.191,3.98,13.191,8.875c0,1.879-0.892,3.688-2.58,5.23l-0.395,0.361l0.08,0.527c0.13,0.856,0.564,2.529,1.984,4.975
	c-2.598-0.444-4.344-1.754-5.414-2.889l-0.438-0.465l-0.606,0.203c-1.844,0.618-3.803,0.932-5.823,0.932
	C7.918,19.75,2,15.769,2,10.875z M21.867,9.034c1.05,0,1.902,0.852,1.902,1.902s-0.852,1.902-1.902,1.902s-1.902-0.852-1.902-1.902
	S20.817,9.034,21.867,9.034z M8.443,9.034c1.05,0,1.902,0.852,1.902,1.902s-0.852,1.902-1.902,1.902s-1.902-0.852-1.902-1.902
	S7.393,9.034,8.443,9.034z M15.155,9.034c1.05,0,1.902,0.852,1.902,1.902s-0.852,1.902-1.902,1.902s-1.902-0.852-1.902-1.902
	S14.105,9.034,15.155,9.034z"/>
</svg>
