<?xml version="1.0" encoding="utf-8"?>
<!-- Generator: Adobe Illustrator 16.0.4, SVG Export Plug-In . SVG Version: 6.00 Build 0)  -->
<!DOCTYPE svg PUBLIC "-//W3C//DTD SVG 1.1//EN" "http://www.w3.org/Graphics/SVG/1.1/DTD/svg11.dtd">
<svg version="1.1" id="Capa_1" xmlns="http://www.w3.org/2000/svg" xmlns:xlink="http://www.w3.org/1999/xlink" x="0px" y="0px"
	 width="64px" height="64px" viewBox="0 0 64 64" enable-background="new 0 0 64 64" xml:space="preserve">
<path d="M12.783,27.176c-0.131-1.764-0.007-3.197,0.46-4.836c0.104-0.367,0.23-0.727,0.367-1.083
	c0.107-0.278,0.047-0.127,0.17-0.397c0.085-0.187,0.179-0.371,0.274-0.554c0.361-0.693,0.771-1.289,1.159-1.742
	c0.229-0.269,0.478-0.52,0.736-0.762c0.142-0.133,0.291-0.259,0.441-0.383c0.112-0.089,0.121-0.097,0.027-0.023
	c0.093-0.07,0.188-0.137,0.284-0.204c0.287-0.2,0.59-0.376,0.899-0.539c0.449-0.237,0.458-0.23,0.899-0.38
	c0.342-0.117,0.694-0.204,1.049-0.276c0.08-0.016,0.161-0.03,0.242-0.044c0.397-0.069-0.239,0.023,0.166-0.023
	c0.21-0.024,0.421-0.036,0.633-0.046c0.957-0.043,1.65,0.054,2.524,0.26c0.485,0.114,1.171-0.053,1.388-0.565
	c0.3-0.71,0.791-1.609,1.174-2.09c0.486-0.609,1.016-1.073,1.536-1.417c1.201-0.795,2.756-1.203,4.113-1.357
	c1.599-0.181,2.855,0.012,4.355,0.46c1.49,0.446,2.823,1.167,3.807,2.43c0.277,0.356,0.797,0.387,1.195,0.316
	c0.123-0.022,0.529-0.077,0.06-0.014c0.335-0.045,0.673-0.076,1.01-0.1c0.433-0.03,0.865-0.04,1.297-0.035
	c0.242,0.003,0.483,0.015,0.724,0.031c0.125,0.008,0.248,0.02,0.373,0.032c0.082,0.009,0.166,0.018,0.248,0.028
	c-0.117-0.015-0.102-0.012,0.049,0.01c0.496,0.078,0.982,0.207,1.453,0.382c-0.215-0.08,0.148,0.069,0.155,0.072
	c0.109,0.052,0.214,0.113,0.318,0.173c0.103,0.06,0.2,0.128,0.299,0.197c0.063,0.046,0.125,0.092,0.187,0.139
	c-0.094-0.073-0.084-0.065,0.028,0.025c0.371,0.297,0.718,0.624,1.046,0.966c0.168,0.174,0.326,0.355,0.481,0.539
	c0.077,0.093,0.153,0.188,0.229,0.283c-0.123-0.154,0.146,0.207,0.17,0.241c0.625,0.886,1.008,1.682,1.301,2.589
	c0.156,0.487,0.267,0.987,0.348,1.491c-0.037-0.23,0.021,0.191,0.021,0.189c0.015,0.13,0.023,0.261,0.032,0.392
	c0.021,0.31,0.021,0.622,0.013,0.932c-0.016,0.602-0.057,0.889-0.174,1.459c-0.129,0.629-0.326,1.243-0.562,1.84
	c-0.47,1.195-1.261,2.368-2.099,3.368c-0.305,0.363-0.623,0.703-0.982,1.012c-0.326,0.281-0.482,0.387-0.98,0.719
	c-0.891,0.593-1.834,1.108-2.783,1.596c-0.99,0.509-2,0.978-3.019,1.427c-0.901,0.398-1.459,0.631-2.44,1.021
	c-0.756,0.302-1.539,0.558-2.258,0.945c-0.82,0.44-1.555,1.067-2.193,1.739c-1.562,1.641-2.722,3.662-3.936,5.559
	c-0.837,1.307-1.692,2.602-2.591,3.866c0.643-0.083,1.287-0.166,1.93-0.249c-2.735-3.268-5.823-6.26-8.959-9.139
	c-0.458-0.42-0.931-0.822-1.378-1.256c-0.588-0.57-1.145-1.17-1.677-1.791c-0.308-0.361-0.604-0.734-0.782-0.973
	c-0.336-0.447-0.651-0.911-0.949-1.385C13.694,30.668,12.932,28.9,12.783,27.176c-0.058-0.667-0.515-1.229-1.229-1.229
	c-0.626,0-1.286,0.56-1.229,1.229c0.606,7.02,6.704,11.373,11.312,15.936c1.754,1.738,3.473,3.521,5.058,5.416
	c0.548,0.654,1.509,0.343,1.93-0.25c1.578-2.219,2.973-4.555,4.498-6.809c1.014-1.496,2.049-2.834,3.613-3.613
	c0.092-0.047,0.186-0.088,0.279-0.129c-0.242,0.106,0,0.004,0.057-0.017c0.137-0.052,0.273-0.104,0.41-0.157
	c0.373-0.144,0.746-0.291,1.117-0.441c0.979-0.395,1.953-0.809,2.918-1.239c1.975-0.882,3.95-1.837,5.736-3.063
	c4.118-2.827,6.508-8.2,5.454-13.123c-0.458-2.138-1.618-4.115-3.126-5.681c-0.719-0.746-1.564-1.472-2.514-1.9
	c-1.084-0.489-2.239-0.689-3.42-0.766c-1.2-0.078-2.438,0.004-3.621,0.214c0.397,0.105,0.797,0.211,1.195,0.316
	c-1.18-1.514-2.969-2.442-4.763-3.022c-1.627-0.526-3.435-0.768-5.139-0.588c-1.84,0.194-3.66,0.645-5.249,1.626
	c-1.685,1.04-2.931,2.646-3.697,4.455c0.463-0.188,0.925-0.376,1.388-0.565c-1.878-0.442-3.83-0.491-5.692,0.056
	c-1.705,0.501-3.244,1.514-4.442,2.817c-2.574,2.801-3.582,6.797-3.305,10.528c0.05,0.668,0.521,1.229,1.229,1.229
	C12.187,28.404,12.833,27.844,12.783,27.176z"/>
</svg>
