<?xml version="1.0" encoding="utf-8"?>
<!-- Generator: Adobe Illustrator 17.0.0, SVG Export Plug-In . SVG Version: 6.00 Build 0)  -->
<!DOCTYPE svg PUBLIC "-//W3C//DTD SVG 1.1//EN" "http://www.w3.org/Graphics/SVG/1.1/DTD/svg11.dtd">
<svg version="1.1" id="Capa_1" xmlns="http://www.w3.org/2000/svg" xmlns:xlink="http://www.w3.org/1999/xlink" x="0px" y="0px"
	 width="28.46px" height="22.541px" viewBox="0 0 28.46 22.541" enable-background="new 0 0 28.46 22.541" xml:space="preserve">
<path d="M8.825,14.197c-3.564-0.992-6.09-3.074-6.09-5.423c0-3.274,4.895-6.04,10.69-6.04c5.453,0,10.107,2.45,10.637,5.467
	c1.016,0.36,1.938,0.828,2.727,1.395c0.037-0.27,0.061-0.543,0.061-0.821C26.85,3.854,20.953,0,13.425,0S0,3.854,0,8.774
	c0,3.955,3.813,7.218,9.216,8.347c-0.285-0.69-0.442-1.426-0.442-2.191C8.775,14.683,8.794,14.438,8.825,14.197z M27.067,18.225
	c0.88-0.948,1.393-2.073,1.393-3.295c0-1.502-0.763-2.862-2.048-3.92c-0.673-0.555-1.495-1.02-2.42-1.385
	c-1.365-0.539-2.962-0.851-4.691-0.851c-4.927,0-8.819,2.49-9.128,5.739c-0.013,0.138-0.03,0.275-0.03,0.415
	c0,0.882,0.266,1.714,0.743,2.465c1.389,2.188,4.592,3.688,8.416,3.688c1.542,0,2.981-0.248,4.244-0.682l4.492,2.141
	C28.038,22.54,27.067,18.225,27.067,18.225z M15.148,17.475c-1.41-0.674-2.27-1.633-2.27-2.545c0-0.043,0.022-0.086,0.026-0.129
	c0.135-1.584,2.712-3.291,6.398-3.291c1.169,0,2.21,0.188,3.117,0.472c1.072,0.337,1.923,0.824,2.494,1.381
	c0.509,0.498,0.813,1.039,0.813,1.566c0,1.616-2.638,3.419-6.424,3.419C17.65,18.349,16.239,17.994,15.148,17.475z"/>
</svg>
