<?xml version="1.0" encoding="utf-8"?>
<!-- Generator: Adobe Illustrator 17.0.0, SVG Export Plug-In . SVG Version: 6.00 Build 0)  -->
<!DOCTYPE svg PUBLIC "-//W3C//DTD SVG 1.1//EN" "http://www.w3.org/Graphics/SVG/1.1/DTD/svg11.dtd">
<svg version="1.1" id="Capa_1" xmlns="http://www.w3.org/2000/svg" xmlns:xlink="http://www.w3.org/1999/xlink" x="0px" y="0px"
	 width="34.628px" height="22.92px" viewBox="0 0 34.628 22.92" enable-background="new 0 0 34.628 22.92" xml:space="preserve">
<path d="M32.971,7.914c-0.256-0.288-0.632-0.454-1.03-0.454l-7.36,1.06l0.454-2.651c0.078-0.459-0.031-0.918-0.303-1.294
	c-0.273-0.375-0.677-0.62-1.139-0.688l-20.514-3C2.515,0.804,2.029,0.99,1.693,1.37C1.401,1.698,1.271,2.134,1.326,2.598
	L2.749,14.48c0.109,0.905,0.909,1.614,1.822,1.614l3.501-0.002l3.915,3.141c0.589,0.508,1.332,0.485,1.743,0.008
	c0.168-0.194,0.352-0.544,0.275-1.076l-0.231-2.16l1.948-0.157l0.269,1.568c0.127,0.746,0.792,1.355,1.546,1.416l5.904,0.475
	l-0.143,1.361c-0.076,0.513,0.097,0.837,0.255,1.021c0.199,0.23,0.487,0.362,0.793,0.362c0.295,0,0.578-0.116,0.816-0.321
	l2.909-2.335l2.558,0.001c0.8,0,1.503-0.623,1.6-1.42l1.073-8.96C33.351,8.608,33.23,8.207,32.971,7.914z M16.254,9.738
	c-0.405,0.059-0.774,0.282-1.013,0.614c-0.242,0.335-0.336,0.743-0.265,1.146l0.433,2.522l-2.15,0.173
	c-0.32,0.023-0.804,0.059-1.138,0.475c-0.218,0.273-0.298,0.618-0.243,0.99l0.131,1.224l-2.863-2.298l-0.26-0.151
	c-0.247-0.117-0.414-0.19-0.738-0.19l-3.564,0.016L3.209,2.774l19.98,2.922l-0.532,3.105L16.254,9.738z M17.258,13.87l-0.403-2.353
	l5.474-0.8l-0.46,2.688c-0.012,0.035-0.075,0.094-0.106,0.101L17.258,13.87z M30.419,17.547l-2.488-0.003
	c-0.31,0-0.479,0.083-0.713,0.196l-1.913,1.504l0.036-0.348c0.068-0.466-0.088-0.774-0.229-0.95
	c-0.314-0.39-0.757-0.421-1.088-0.446l-6.229-0.502l-0.223-1.3l4.338-0.349c0.869-0.069,1.634-0.77,1.779-1.627l0.563-3.287
	l7.145-1.048L30.419,17.547z"/>
</svg>
