<?xml version="1.0" encoding="utf-8"?>
<!-- Generator: Adobe Illustrator 17.0.0, SVG Export Plug-In . SVG Version: 6.00 Build 0)  -->
<!DOCTYPE svg PUBLIC "-//W3C//DTD SVG 1.1//EN" "http://www.w3.org/Graphics/SVG/1.1/DTD/svg11.dtd">
<svg version="1.1" id="Capa_1" xmlns="http://www.w3.org/2000/svg" xmlns:xlink="http://www.w3.org/1999/xlink" x="0px" y="0px"
	 width="29.338px" height="26.127px" viewBox="0 0 29.338 26.127" enable-background="new 0 0 29.338 26.127" xml:space="preserve">
<path d="M27.183,0H2.155C1.578,0,1.037,0.225,0.629,0.632C0.223,1.04-0.001,1.581,0,2.156v17.572c0,1.188,0.965,2.154,2.155,2.154
	h13.544l5.056,3.777c0.414,0.31,0.84,0.466,1.265,0.466c0.79,0,1.64-0.602,1.64-1.922v-2.322h3.523c1.188,0,2.155-0.967,2.155-2.154
	V2.155C29.338,0.967,28.371,0,27.183,0z M27.338,19.727c0,0.087-0.068,0.154-0.155,0.154h-5.523v3.957l-5.296-3.956h-0.332H2.151
	C2.068,19.882,2,19.813,2,19.728V2.154c0-0.053,0.024-0.088,0.045-0.109C2.065,2.024,2.101,2,2.155,2h25.028
	c0.086,0,0.155,0.069,0.155,0.155V19.727z M3.782,3.64h21.917v14.5h-5.563v2.334l-3.369-2.334H3.782V3.64z"/>
</svg>
