<?xml version="1.0" encoding="utf-8"?>
<!-- Generator: Adobe Illustrator 17.0.0, SVG Export Plug-In . SVG Version: 6.00 Build 0)  -->
<!DOCTYPE svg PUBLIC "-//W3C//DTD SVG 1.1//EN" "http://www.w3.org/Graphics/SVG/1.1/DTD/svg11.dtd">
<svg version="1.1" id="Capa_1" xmlns="http://www.w3.org/2000/svg" xmlns:xlink="http://www.w3.org/1999/xlink" x="0px" y="0px"
	 width="29.166px" height="26.481px" viewBox="0 0 29.166 26.481" enable-background="new 0 0 29.166 26.481" xml:space="preserve">
<path d="M5.156,8.315h3.742v3.742H5.156V8.315z M11.201,12.057h3.742V8.315h-3.742V12.057z M17.246,12.057h3.742V8.315h-3.742
	V12.057z M29.029,23.678c0.013,0.047,0.039,0.094,0.039,0.141c0,1.471-6.508,2.662-14.533,2.662C6.508,26.481,0,25.29,0,23.819
	c0-1.468,6.508-2.661,14.535-2.661c2.113,0,4.115,0.084,5.927,0.233c-1.096-0.714-1.927-1.492-2.506-2.166
	c-1.572,0.491-3.221,0.74-4.914,0.74C5.852,19.965,0,15.487,0,9.982C0,4.477,5.85,0,13.041,0c7.191,0,13.043,4.478,13.043,9.982
	c0,1.652-0.539,3.279-1.559,4.732c0.324,1.599,1.332,4.594,3.396,7.328l1.245,1.646L29.029,23.678z M25.231,21.383
	c-1.631-2.721-2.406-5.409-2.619-6.75l-0.064-0.398l0.246-0.319c0.932-1.207,1.422-2.568,1.422-3.934
	c0-4.475-5.012-8.116-11.174-8.116S1.867,5.507,1.867,9.982c0,4.475,5.012,8.116,11.174,8.116c1.705,0,3.361-0.283,4.916-0.843
	l0.647-0.232l0.414,0.548C19.905,18.742,21.803,20.623,25.231,21.383z"/>
</svg>
