<?xml version="1.0" encoding="utf-8"?>
<!-- Generator: Adobe Illustrator 17.0.0, SVG Export Plug-In . SVG Version: 6.00 Build 0)  -->
<!DOCTYPE svg PUBLIC "-//W3C//DTD SVG 1.1//EN" "http://www.w3.org/Graphics/SVG/1.1/DTD/svg11.dtd">
<svg version="1.1" id="Capa_1" xmlns="http://www.w3.org/2000/svg" xmlns:xlink="http://www.w3.org/1999/xlink" x="0px" y="0px"
	 width="33.1px" height="23.468px" viewBox="0 0 33.1 23.468" enable-background="new 0 0 33.1 23.468" xml:space="preserve">
<path d="M5.6,13.906c0,0.358,0.035,0.707,0.084,1.051C2.487,14.604,0,11.896,0,8.605V6.393C0,2.862,2.862,0,6.393,0h11.824
	c2.797,0,5.168,1.799,6.036,4.301H12.994c-4.076,0-7.393,3.316-7.393,7.393L5.6,13.906z M33.1,22.266l-0.528,0.478
	c-0.523,0.474-1.341,0.724-2.365,0.724c-1.621,0-3.964-0.694-5.636-2.238H13.41c-3.802,0-6.894-3.092-6.894-6.893v-2.212
	c0-3.802,3.093-6.894,6.894-6.894h11.824c3.802,0,6.894,3.093,6.894,6.894v2.212c0,1.822-0.733,3.578-2.023,4.868
	c0.41,1.193,1.205,2.109,2.367,2.727L33.1,22.266z M12.722,11.82h9.942v-1.724h-9.942V11.82z M26.533,14.096H12.722v1.723h13.811
	V14.096z"/>
</svg>
