<?xml version="1.0" encoding="utf-8"?>
<!-- Generator: Adobe Illustrator 17.0.0, SVG Export Plug-In . SVG Version: 6.00 Build 0)  -->
<!DOCTYPE svg PUBLIC "-//W3C//DTD SVG 1.1//EN" "http://www.w3.org/Graphics/SVG/1.1/DTD/svg11.dtd">
<svg version="1.1" id="Capa_1" xmlns="http://www.w3.org/2000/svg" xmlns:xlink="http://www.w3.org/1999/xlink" x="0px" y="0px"
	 width="64px" height="64px" viewBox="0 0 64 64" enable-background="new 0 0 64 64" xml:space="preserve">
<path d="M21.083,30.5c1.059,0,1.917,0.858,1.917,1.917c0,1.059-0.858,1.917-1.917,1.917s-1.917-0.858-1.917-1.917
	C19.167,31.358,20.025,30.5,21.083,30.5 M21.083,28.274c-2.284,0-4.142,1.858-4.142,4.142s1.858,4.142,4.142,4.142
	s4.142-1.858,4.142-4.142C25.226,30.133,23.367,28.274,21.083,28.274L21.083,28.274z M41.083,30.5c1.059,0,1.917,0.858,1.917,1.917
	c0,1.059-0.858,1.917-1.917,1.917s-1.917-0.858-1.917-1.917C39.167,31.358,40.025,30.5,41.083,30.5 M41.083,28.274
	c-2.284,0-4.142,1.858-4.142,4.142s1.858,4.142,4.142,4.142s4.142-1.858,4.142-4.142C45.226,30.133,43.367,28.274,41.083,28.274
	L41.083,28.274z M31.083,30.5c1.059,0,1.917,0.858,1.917,1.917c0,1.059-0.858,1.917-1.917,1.917s-1.917-0.858-1.917-1.917
	C29.167,31.358,30.025,30.5,31.083,30.5 M31.083,28.274c-2.284,0-4.142,1.858-4.142,4.142s1.858,4.142,4.142,4.142
	s4.142-1.858,4.142-4.142C35.226,30.133,33.367,28.274,31.083,28.274L31.083,28.274z M13.208,47.914L13.208,47.914
	c-0.9,0-1.368-0.409-1.602-0.752c-0.546-0.799-0.265-1.815,0.083-2.705c0.182-0.469,0.352-1.013,0.505-1.615
	c0.277-1.091-0.612-2.464-1.616-3.061c-3.396-2.02-5.19-4.479-5.19-7.114c0-6.605,11.616-11.78,26.446-11.78
	c6.912,0,13.428,1.141,18.346,3.211c5.224,2.2,8.101,5.244,8.1,8.569c0,6.605-11.617,11.78-26.446,11.78
	c-2.292,0-4.57-0.128-6.771-0.38c-1.377-0.158-3.314,0.605-4.539,1.353c-1.648,1.005-3.781,1.803-6.338,2.371
	C13.813,47.874,13.494,47.914,13.208,47.914z M31.833,23.113c-14.488,0-24.22,4.94-24.22,9.554c0,2.282,2.231,4.088,4.102,5.2
	c1.701,1.012,3.203,3.291,2.636,5.523c-0.175,0.689-0.373,1.319-0.588,1.873c-0.057,0.146-0.1,0.268-0.132,0.37
	c0.022-0.005,0.046-0.01,0.07-0.015c2.319-0.516,4.224-1.221,5.662-2.099c1.497-0.912,3.972-1.896,5.951-1.663
	c2.117,0.242,4.311,0.364,6.519,0.364c14.488,0,24.22-4.939,24.22-9.554c0.001-2.339-2.454-4.714-6.737-6.518
	C44.664,24.191,38.455,23.113,31.833,23.113z"/>
</svg>
