<?xml version="1.0" encoding="utf-8"?>
<!-- Generator: Adobe Illustrator 17.0.0, SVG Export Plug-In . SVG Version: 6.00 Build 0)  -->
<!DOCTYPE svg PUBLIC "-//W3C//DTD SVG 1.1//EN" "http://www.w3.org/Graphics/SVG/1.1/DTD/svg11.dtd">
<svg version="1.1" id="Capa_1" xmlns="http://www.w3.org/2000/svg" xmlns:xlink="http://www.w3.org/1999/xlink" x="0px" y="0px"
	 width="31.184px" height="23.083px" viewBox="0 0 31.184 23.083" enable-background="new 0 0 31.184 23.083" xml:space="preserve">
<path d="M29.833,18.495c-0.034-0.028-0.075-0.044-0.112-0.068c-0.043-0.041-0.079-0.087-0.126-0.125l-2.186-1.774
	c2.356-1.742,3.775-4.022,3.775-6.558c0-5.591-6.849-9.97-15.592-9.97S0,4.38,0,9.97c0,2.94,1.937,5.649,5.351,7.534l-2.19,5.385
	l1.331,0.133c0.414,0.042,0.812,0.061,1.197,0.061c3.585,0,5.955-1.692,7.384-3.272c0.83,0.085,1.675,0.128,2.519,0.128
	c2.286,0,4.437-0.305,6.375-0.848l4.214,3.419c0.05,0.04,0.104,0.071,0.156,0.105c0.028,0.029,0.05,0.062,0.082,0.087
	c0.245,0.199,0.561,0.273,0.895,0.242c0.042,0.003,0.083,0.01,0.125,0.01c0.583,0,1.162-0.252,1.556-0.737l0.894-1.102
	c0.425-0.525,0.536-1.203,0.364-1.81C30.212,18.979,30.075,18.691,29.833,18.495z M15.595,17.94c-0.944,0-1.888-0.058-2.806-0.173
	l-0.548-0.069l-0.35,0.427c-1.528,1.866-3.488,2.858-5.831,2.951l1.845-4.536l-0.848-0.407c-3.213-1.544-5.055-3.79-5.055-6.163
	C2.002,5.65,8.226,2,15.594,2c7.367,0,13.593,3.651,13.593,7.971c0,1.976-1.312,3.806-3.43,5.216l-7.154-5.805l-1.184-0.961
	c-0.088-0.093-0.188-0.179-0.31-0.252L17.05,8.121l-0.009,0.011c-0.096-0.052-0.198-0.1-0.313-0.137l-5.01-1.632
	c-0.223-0.073-0.416-0.107-0.578-0.107c-0.598,0-0.758,0.47-0.326,1.221l2.629,4.567c0.06,0.105,0.13,0.192,0.2,0.276l-0.007,0.009
	l0.034,0.028c0.111,0.125,0.233,0.22,0.362,0.294l1.61,1.307l4.347,3.528C18.602,17.775,17.126,17.94,15.595,17.94z M15.701,12.225
	l0.28-0.345l6.191,5.024c-0.239,0.08-0.486,0.151-0.734,0.223l-5.871-4.765C15.612,12.317,15.658,12.277,15.701,12.225z
	 M15.343,10.226l-1.049,1.292l-2.312-4.017l4.407,1.436L15.79,9.675L15.343,10.226z M23.929,19.148l-0.602-0.489
	c0.233-0.083,0.46-0.172,0.684-0.263l0.319,0.259L23.929,19.148z M27.436,19.126l-0.894,1.102c-0.23,0.284-0.383,0.596-0.471,0.905
	l-1.485-1.205l2.154-2.655l1.485,1.205C27.94,18.628,27.666,18.842,27.436,19.126z"/>
</svg>
