<svg width="29.338" xmlns="http://www.w3.org/2000/svg" height="26.127" viewBox="0 0 29.338 26.127" xmlns:xlink="http://www.w3.org/1999/xlink" enable-background="new 0 0 29.338 26.127">
<path d="m27.184,0h-25.028c-1.189,0-2.156,.967-2.156,2.155v17.572c0,1.188 .967,2.155 2.156,2.155h13.543l5.057,3.777c.414,.31 .842,.468 1.268,.468 .789,0 1.639-.602 1.637-1.923v-2.322h3.523c1.188,0 2.154-.967 2.154-2.155v-17.572c0-1.188-.967-2.155-2.154-2.155zm.156,19.727c0,.085-.068,.155-.154,.155h-5.523v3.955l-5.297-3.956h-14.21c-.086,0-.154-.07-.154-.155v-17.572c0-.085 .068-.155 .154-.155v.001h25.029c.086,0 .154,.07 .154,.155v17.572zm-21.835-10.54h4.334v4.333h-4.334v-4.333zm7,0h4.334v4.333h-4.334v-4.333zm7,0h4.334v4.333h-4.334v-4.333z"/>
</svg>
