<?xml version="1.0" encoding="utf-8"?>
<!-- Generator: Adobe Illustrator 17.0.0, SVG Export Plug-In . SVG Version: 6.00 Build 0)  -->
<!DOCTYPE svg PUBLIC "-//W3C//DTD SVG 1.1//EN" "http://www.w3.org/Graphics/SVG/1.1/DTD/svg11.dtd">
<svg version="1.1" id="Capa_1" xmlns="http://www.w3.org/2000/svg" xmlns:xlink="http://www.w3.org/1999/xlink" x="0px" y="0px"
	 width="32.686px" height="24.964px" viewBox="0 0 32.686 24.964" enable-background="new 0 0 32.686 24.964" xml:space="preserve">
<path d="M1.177,24.066V9.224c0-4.59,3.735-8.325,8.325-8.325h13.681c4.591,0,8.327,3.735,8.327,8.325v2.56
	c0,4.59-3.735,8.325-8.325,8.325H9.695L1.177,24.066z M9.502,2.755c-3.567,0-6.469,2.902-6.469,6.469v11.933l6.253-2.905h13.899
	c3.567,0,6.469-2.902,6.469-6.469v-2.56c0-3.567-2.903-6.469-6.471-6.469H9.502z M10.114,9.083c0.975,0,1.765,0.79,1.765,1.765
	s-0.79,1.765-1.765,1.765s-1.765-0.79-1.765-1.765S9.139,9.083,10.114,9.083z M22.572,9.083c0.975,0,1.765,0.79,1.765,1.765
	s-0.79,1.765-1.765,1.765s-1.765-0.79-1.765-1.765S21.597,9.083,22.572,9.083z M16.342,9.083c0.975,0,1.765,0.79,1.765,1.765
	s-0.79,1.765-1.765,1.765s-1.765-0.79-1.765-1.765S15.367,9.083,16.342,9.083z"/>
</svg>
