<?xml version="1.0" encoding="utf-8"?>
<!-- Generator: Adobe Illustrator 17.0.0, SVG Export Plug-In . SVG Version: 6.00 Build 0)  -->
<!DOCTYPE svg PUBLIC "-//W3C//DTD SVG 1.1//EN" "http://www.w3.org/Graphics/SVG/1.1/DTD/svg11.dtd">
<svg version="1.1" id="Capa_1" xmlns="http://www.w3.org/2000/svg" xmlns:xlink="http://www.w3.org/1999/xlink" x="0px" y="0px"
	 width="64px" height="64px" viewBox="0 0 64 64" enable-background="new 0 0 64 64" xml:space="preserve">
<path d="M32.375,5.625c-14.359,0-26,11.641-26,26s11.641,26,26,26s26-11.641,26-26S46.734,5.625,32.375,5.625z M32.375,54.581
	c-12.658,0-22.956-10.298-22.956-22.956S19.717,8.669,32.375,8.669s22.956,10.298,22.956,22.956S45.033,54.581,32.375,54.581z
	 M47.5,22.5c0,0.829-0.672,1.5-1.5,1.5H19c-0.829,0-1.5-0.671-1.5-1.5S18.171,21,19,21h27C46.828,21,47.5,21.671,47.5,22.5z
	 M47.5,29.5c0,0.829-0.672,1.5-1.5,1.5H19c-0.829,0-1.5-0.671-1.5-1.5S18.171,28,19,28h27C46.828,28,47.5,28.671,47.5,29.5z
	 M47.5,35.5c0,0.828-0.672,1.5-1.5,1.5H19c-0.829,0-1.5-0.672-1.5-1.5S18.171,34,19,34h27C46.828,34,47.5,34.672,47.5,35.5z
	 M33.5,42.5c0,0.828-0.672,1.5-1.5,1.5H19c-0.829,0-1.5-0.672-1.5-1.5S18.171,41,19,41h13C32.828,41,33.5,41.672,33.5,42.5z"/>
</svg>
