<?xml version="1.0" encoding="utf-8"?>
<!-- Generator: Adobe Illustrator 17.0.0, SVG Export Plug-In . SVG Version: 6.00 Build 0)  -->
<!DOCTYPE svg PUBLIC "-//W3C//DTD SVG 1.1//EN" "http://www.w3.org/Graphics/SVG/1.1/DTD/svg11.dtd">
<svg version="1.1" id="Capa_1" xmlns="http://www.w3.org/2000/svg" xmlns:xlink="http://www.w3.org/1999/xlink" x="0px" y="0px"
	 width="29.693px" height="25.662px" viewBox="0 0 29.693 25.662" enable-background="new 0 0 29.693 25.662" xml:space="preserve">
<path d="M14.848,11.704c0.009,0.014,0.016,0.029,0.026,0.044l-0.054,0.001C14.829,11.734,14.838,11.718,14.848,11.704z
	 M28.974,3.553v14.749c0,1.615-1.502,2.929-3.347,2.929H18.99l-4.143,3.808l-4.142-3.808H4.069c-1.846,0-3.347-1.314-3.347-2.929
	V3.553c0-1.615,1.501-2.929,3.347-2.929h21.557C27.472,0.624,28.972,1.937,28.974,3.553z M21.644,9.727
	c0-2.036-1.65-3.687-3.687-3.687c-1.308,0-2.455,0.683-3.109,1.711c-0.655-1.028-1.801-1.711-3.109-1.711
	c-2.037,0-3.687,1.651-3.687,3.687c0,0.971,0.377,1.851,0.99,2.51l5.541,5.14l5.746-4.831C21.132,11.87,21.643,10.859,21.644,9.727z
	"/>
</svg>
