<?xml version="1.0" encoding="utf-8"?>
<!-- Generator: Adobe Illustrator 17.0.0, SVG Export Plug-In . SVG Version: 6.00 Build 0)  -->
<!DOCTYPE svg PUBLIC "-//W3C//DTD SVG 1.1//EN" "http://www.w3.org/Graphics/SVG/1.1/DTD/svg11.dtd">
<svg version="1.1" id="Capa_1" xmlns="http://www.w3.org/2000/svg" xmlns:xlink="http://www.w3.org/1999/xlink" x="0px" y="0px"
	 width="64px" height="64px" viewBox="0 0 64 64" enable-background="new 0 0 64 64" xml:space="preserve">
<path d="M59,25.5v17c0,0.276-0.224,0.5-0.5,0.5h-52C6.224,43,6,42.776,6,42.5V26c0-0.276,0.224-0.5,0.5-0.5S7,25.724,7,26v16h51V26
	H29c-0.276,0-0.5-0.224-0.5-0.5S28.724,25,29,25h29.5C58.776,25,59,25.224,59,25.5z M21.552,35.145l4.597-4.536
	c0.144-0.141,0.358-0.182,0.544-0.105C26.879,30.582,27,30.763,27,30.965V35.5c0,0.276-0.224,0.5-0.5,0.5h-4.597
	c-0.203,0-0.386-0.123-0.462-0.311C21.363,35.502,21.407,35.286,21.552,35.145z M23.122,35H26v-2.839L23.122,35z M8.203,22.214
	c-0.094-0.094-0.146-0.221-0.146-0.354s0.053-0.26,0.146-0.354l4.243-4.242c0.195-0.195,0.512-0.195,0.707,0l1.414,1.414
	c0.094,0.094,0.146,0.221,0.146,0.354s-0.053,0.26-0.146,0.354l-4.243,4.242c-0.098,0.098-0.226,0.146-0.354,0.146
	s-0.256-0.049-0.354-0.146L8.203,22.214z M9.263,21.861l0.707,0.707l3.536-3.535l-0.707-0.707L9.263,21.861z M11.03,24.336
	l4.243-4.243c0.188-0.188,0.52-0.188,0.707,0l9.192,9.192c0.195,0.195,0.195,0.512,0,0.707l-4.243,4.243
	c-0.098,0.098-0.226,0.146-0.354,0.146s-0.256-0.049-0.354-0.146l-9.192-9.192c-0.094-0.094-0.146-0.221-0.146-0.354
	S10.937,24.43,11.03,24.336z M12.091,24.69l8.485,8.485l3.536-3.536l-8.485-8.485L12.091,24.69z"/>
</svg>
