<?xml version="1.0" encoding="utf-8"?>
<!-- Generator: Adobe Illustrator 16.0.4, SVG Export Plug-In . SVG Version: 6.00 Build 0)  -->
<!DOCTYPE svg PUBLIC "-//W3C//DTD SVG 1.1//EN" "http://www.w3.org/Graphics/SVG/1.1/DTD/svg11.dtd">
<svg version="1.1" id="Capa_1" xmlns="http://www.w3.org/2000/svg" xmlns:xlink="http://www.w3.org/1999/xlink" x="0px" y="0px"
	 width="27.264px" height="25.042px" viewBox="0 0 27.264 25.042" enable-background="new 0 0 27.264 25.042" xml:space="preserve">
<g>
	<path d="M15.434,4.612l-0.09,0.146h-0.001l0.962-1.559c0.075-0.122,0.134-0.249,0.18-0.378c0.066-0.052,0.124-0.112,0.168-0.183
		c0.194-0.315,0.104-0.757-0.187-1.185c-0.149-0.404-0.421-0.765-0.813-1.007l-0.243-0.15C15.084,0.095,14.723,0,14.365,0
		c-0.066,0-0.132,0.018-0.197,0.025c-0.522-0.073-0.967,0.042-1.164,0.362c-0.046,0.075-0.073,0.157-0.089,0.244
		c-0.094,0.098-0.187,0.198-0.259,0.317l-2.402,3.896C4.369,5.98,0,9.996,0,14.777c0,5.66,6.115,10.266,13.633,10.266
		c7.516,0,13.631-4.605,13.631-10.266C27.262,9.578,22.098,5.279,15.434,4.612z M13.331,1.759C13.53,2,13.786,2.231,14.098,2.423
		l0.244,0.15c0.311,0.191,0.631,0.316,0.935,0.386l-0.784,1.272l-1.945-1.2L13.331,1.759z M13.631,23.46
		c-6.644,0-12.049-3.896-12.049-8.684c0-3.628,3.106-6.739,7.501-8.036L7.217,9.768C7.19,9.812,7.175,9.858,7.151,9.903l-0.962,1.56
		l0.096,0.059c-0.116,0.174-0.215,0.374-0.262,0.624l-0.614,3.275c-0.134,0.705,0.055,1.095,0.444,1.095
		c0.207,0,0.472-0.11,0.775-0.343l2.649-2.02C9.48,14,9.626,13.828,9.73,13.647l0.107,0.065l4.679-7.586
		c6.23,0.329,11.163,4.078,11.163,8.65C25.68,19.565,20.275,23.46,13.631,23.46z M8.873,13.119c-0.027,0.066-0.08,0.146-0.202,0.238
		l-2.17,1.655l0.505-2.682c0.015-0.072,0.052-0.206,0.121-0.288l0.604,0.373c0.046,0.035,0.087,0.074,0.138,0.105l0.243,0.15
		c0.035,0.021,0.074,0.029,0.11,0.048L8.873,13.119z"/>
	<circle cx="13.795" cy="14.872" r="1.769"/>
	<circle cx="19.377" cy="14.872" r="1.769"/>
</g>
</svg>
