<?xml version="1.0" encoding="utf-8"?>
<!-- Generator: Adobe Illustrator 16.0.4, SVG Export Plug-In . SVG Version: 6.00 Build 0)  -->
<!DOCTYPE svg PUBLIC "-//W3C//DTD SVG 1.1//EN" "http://www.w3.org/Graphics/SVG/1.1/DTD/svg11.dtd">
<svg version="1.1" id="Capa_1" xmlns="http://www.w3.org/2000/svg" xmlns:xlink="http://www.w3.org/1999/xlink" x="0px" y="0px"
	 width="31.184px" height="23.082px" viewBox="0 0 31.184 23.082" enable-background="new 0 0 31.184 23.082" xml:space="preserve">
<path d="M31.184,9.97c0-5.591-6.849-9.97-15.592-9.97S0,4.38,0,9.97c0,2.536,1.419,4.816,3.775,6.557L1.59,18.301
	c-0.047,0.038-0.083,0.084-0.126,0.125c-0.037,0.023-0.077,0.04-0.112,0.068c-0.242,0.195-0.379,0.484-0.42,0.811
	c-0.172,0.607-0.06,1.285,0.365,1.81l0.894,1.102c0.395,0.485,0.974,0.737,1.557,0.737c0.042,0,0.083-0.008,0.125-0.01
	c0.334,0.031,0.648-0.043,0.895-0.242c0.032-0.026,0.054-0.059,0.082-0.088c0.052-0.035,0.106-0.065,0.156-0.105l2.225-1.806
	l1.985-1.611c1.939,0.543,4.09,0.849,6.377,0.849c0.844,0,1.688-0.043,2.518-0.129c1.432,1.58,3.803,3.271,7.388,3.271
	c0.385,0,0.782-0.02,1.194-0.061l1.331-0.133l-2.19-5.385C29.247,15.618,31.184,12.91,31.184,9.97z M5.115,21.132
	c-0.089-0.309-0.241-0.622-0.472-0.905L3.75,19.125c-0.23-0.284-0.504-0.498-0.789-0.648l1.484-1.205L6.6,19.927L5.115,21.132z
	 M7.257,19.146l-0.401-0.494l0.316-0.257c0.225,0.091,0.452,0.181,0.686,0.264L7.257,19.146z M9.015,16.9l6.19-5.021l0.279,0.346
	c0.043,0.051,0.09,0.092,0.135,0.137l-5.87,4.763C9.502,17.053,9.255,16.98,9.015,16.9z M14.797,8.935l4.407-1.436l-2.312,4.018
	L14.797,8.935z M24.131,16.131l-0.848,0.407l1.845,4.536c-2.343-0.094-4.303-1.085-5.831-2.951l-0.351-0.428L18.4,17.764
	c-0.918,0.115-1.861,0.174-2.806,0.174c-1.532,0-3.01-0.166-4.397-0.455l5.957-4.834c0.129-0.073,0.251-0.168,0.362-0.293
	l0.034-0.028l-0.007-0.009c0.07-0.084,0.14-0.172,0.2-0.276l2.629-4.567c0.432-0.749,0.271-1.219-0.326-1.219
	c-0.162,0-0.355,0.034-0.578,0.107l-5.01,1.632c-0.115,0.037-0.217,0.085-0.313,0.137l-0.009-0.011l-0.06,0.048
	c-0.122,0.073-0.223,0.158-0.311,0.251l-1.184,0.961l-7.151,5.803c-2.117-1.41-3.429-3.24-3.429-5.216
	c0-4.32,6.225-7.97,13.592-7.97s13.592,3.65,13.592,7.97C29.186,12.341,27.344,14.588,24.131,16.131z"/>
</svg>
