<?xml version="1.0" encoding="utf-8"?>
<!-- Generator: Adobe Illustrator 17.0.0, SVG Export Plug-In . SVG Version: 6.00 Build 0)  -->
<!DOCTYPE svg PUBLIC "-//W3C//DTD SVG 1.1//EN" "http://www.w3.org/Graphics/SVG/1.1/DTD/svg11.dtd">
<svg version="1.1" id="Capa_1" xmlns="http://www.w3.org/2000/svg" xmlns:xlink="http://www.w3.org/1999/xlink" x="0px" y="0px"
	 width="64px" height="64px" viewBox="0 0 64 64" enable-background="new 0 0 64 64" xml:space="preserve">
<path d="M32.613,30.026c0.092,2.15,0.158,4.302,0.139,6.453c-0.012,1.371,0.034,2.835-0.241,4.189
	c-0.105,0.518-0.78,0.545-1.063,0.181c-0.005-0.004-0.005-0.002-0.023-0.023c-0.081-0.093-0.17-0.18-0.263-0.261
	c-0.033-0.028-0.066-0.057-0.1-0.084c-0.017-0.014-0.017-0.014-0.024-0.02c0,0,0,0,0,0c-0.093-0.069-0.188-0.135-0.286-0.198
	c-0.235-0.151-0.479-0.288-0.731-0.409c-1.971-0.951-4.351-1.253-6.541-1.378c-2.511-0.144-5.038,0.027-7.54-0.301
	c-2.104-0.276-4.467-0.823-5.935-2.489c-1.807-2.049-2.731-4.992-2.998-7.667c-0.213-2.135-0.042-4.268,0.186-6.392
	c0.047-0.003,0.093-0.005,0.143-0.032c0.375-0.204,0.75-0.408,1.125-0.612c-0.333,2.929-0.644,5.932,0.047,8.82
	c0.402,1.679,1.082,3.393,2.13,4.78c0.738,0.975,1.884,1.569,3.034,1.914c2.245,0.673,4.628,0.699,6.953,0.708
	c2.437,0.009,4.904,0.105,7.285,0.674c1.216,0.29,2.479,0.69,3.524,1.397c0.006,0.004,0.013,0.009,0.019,0.013
	c0.005-0.08,0.014-0.16,0.019-0.24c0.078-1.334,0.088-2.673,0.076-4.01c-0.023-2.512-0.125-5.023-0.263-7.531
	c-0.076-1.376-0.233-2.706-0.719-4.006c-0.37-0.987-0.881-1.923-1.501-2.775c-0.903-1.241-1.961-2.353-3.419-2.917
	c-1.73-0.669-3.604-0.889-5.447-0.955c-1.76-0.063-3.521,0.013-5.277,0.142c-0.449,0.033-0.898,0.068-1.348,0.101
	c0.224-0.224,0.447-0.448,0.671-0.672c0.219-0.219,0.04-0.511-0.22-0.554c3.071-0.212,6.152-0.425,9.211,0.073
	c1.719,0.279,3.504,0.787,4.866,1.922c1.306,1.088,2.413,2.627,3.134,4.155c0.528,1.12,0.92,2.307,1.086,3.538
	C32.522,27.036,32.549,28.539,32.613,30.026z M7.947,18.279c0.042,0.155-0.035,0.393-0.059,0.546
	c-0.027,0.169-0.053,0.338-0.08,0.507c-0.029,0.182-0.058,0.364-0.086,0.546c-0.044,0.278-0.088,0.556-0.131,0.834
	c0.284-0.154,0.569-0.309,0.854-0.463c0.036-0.019,0.071-0.039,0.107-0.058c0.266-0.145,0.533-0.29,0.8-0.435
	c0.125-0.068,0.29-0.193,0.438-0.193c0.163,0,0.362,0.145,0.501,0.215c0.317,0.161,0.633,0.322,0.95,0.483
	c0.257,0.131,0.514,0.262,0.772,0.393c-0.058-0.313-0.116-0.625-0.175-0.938c-0.063-0.338-0.126-0.677-0.189-1.015
	c-0.026-0.137-0.095-0.34-0.057-0.479c0.044-0.16,0.24-0.3,0.35-0.411c0.216-0.216,0.431-0.432,0.647-0.648
	c0.035-0.035,0.071-0.071,0.106-0.106c0.208-0.208,0.416-0.417,0.623-0.625c-0.31-0.041-0.62-0.082-0.93-0.122
	c-0.208-0.027-0.417-0.054-0.625-0.082c-0.133-0.017-0.266-0.035-0.399-0.052c-0.136-0.018-0.352-0.014-0.473-0.085
	c-0.147-0.086-0.217-0.312-0.289-0.453c-0.162-0.316-0.323-0.633-0.485-0.949c-0.137-0.267-0.273-0.535-0.409-0.802
	c-0.145,0.303-0.289,0.606-0.434,0.91c-0.148,0.311-0.296,0.621-0.444,0.932c-0.063,0.131-0.117,0.318-0.251,0.397
	c-0.142,0.083-0.363,0.078-0.52,0.103c-0.327,0.052-0.655,0.104-0.982,0.156c-0.302,0.048-0.604,0.096-0.906,0.145
	c0.24,0.227,0.479,0.454,0.719,0.681c0.249,0.237,0.499,0.474,0.749,0.711C7.742,18.02,7.907,18.133,7.947,18.279z M54.606,35.899
	c0.192,1.99,0.271,3.991-0.19,5.954c-0.315,1.341-0.896,2.798-1.783,3.867c-0.669,0.805-1.662,1.225-2.648,1.494
	c-2.379,0.649-4.899,0.402-7.333,0.518c-1.946,0.093-3.958,0.346-5.764,1.116c-0.286,0.122-0.593,0.272-0.886,0.445
	c-0.086-1.439-0.074-2.887-0.046-4.327c0.024-1.267,0.074-2.533,0.134-3.799c0.068-1.436,0.107-2.845,0.558-4.223
	c0.513-1.568,1.619-3.336,3.018-4.276c1.976-1.327,4.757-1.338,7.044-1.3c0.806,0.014,1.61,0.062,2.413,0.118
	c0.01-0.456,0.116-0.854,0.312-1.175c-0.38-0.028-0.76-0.059-1.141-0.081c-1.878-0.108-3.764-0.103-5.629,0.173
	c-1.696,0.251-3.394,0.81-4.605,2.074c-1.427,1.489-2.466,3.299-2.883,5.33c-0.214,1.043-0.227,2.122-0.279,3.182
	c-0.048,0.964-0.087,1.929-0.116,2.894c-0.041,1.357-0.06,2.716-0.032,4.074c0.018,0.883,0.012,1.816,0.189,2.688
	c0.104,0.512,0.762,0.544,1.051,0.195c-0.012,0.018-0.018,0.027,0.01-0.006c0.061-0.073,0.13-0.139,0.201-0.203
	c0.035-0.031,0.072-0.061,0.108-0.091c0.017-0.011,0.126-0.091,0.152-0.11c0.192-0.131,0.396-0.243,0.603-0.348
	c1.516-0.767,3.395-1,5.097-1.12c2.498-0.176,5.002,0.042,7.477-0.436c1.062-0.205,2.126-0.574,3.011-1.207
	c1.047-0.749,1.685-1.905,2.204-3.056c1.324-2.936,1.183-6.069,0.864-9.18C55.348,35.373,54.971,35.65,54.606,35.899z
	 M55.402,30.015c-1.457,0.082-1.655,1.545-1.655,1.545c0.001-0.084-0.012-0.157-0.019-0.234c-0.013-0.139-0.039-0.267-0.077-0.385
	c-0.389-1.195-1.96-1.324-2.766-0.531c-0.286,0.281-0.466,0.68-0.47,1.184c0,0.072-0.008,0.14,0,0.216
	c0.107,1.113,2.412,2.209,2.842,3.652c0.32-0.143,0.762-0.413,1.227-0.735c0.37-0.256,0.747-0.543,1.105-0.844
	c0.702-0.591,1.297-1.209,1.425-1.626C57.434,30.419,56.023,29.98,55.402,30.015z"/>
</svg>
