<?xml version="1.0" encoding="utf-8"?>
<!-- Generator: Adobe Illustrator 17.0.0, SVG Export Plug-In . SVG Version: 6.00 Build 0)  -->
<!DOCTYPE svg PUBLIC "-//W3C//DTD SVG 1.1//EN" "http://www.w3.org/Graphics/SVG/1.1/DTD/svg11.dtd">
<svg version="1.1" id="Capa_1" xmlns="http://www.w3.org/2000/svg" xmlns:xlink="http://www.w3.org/1999/xlink" x="0px" y="0px"
	 width="64px" height="64px" viewBox="0 0 64 64" enable-background="new 0 0 64 64" xml:space="preserve">
<path d="M44.57,17.167c-5.898,0-10.555,4.782-10.555,10.68c0,5.898,4.844,10.68,10.742,10.68c0.059,0,0.148-0.008,0.207-0.009
	c-2.332,1.857-5.261,2.976-8.467,2.976c-1.475,0-2.662,1.196-2.662,2.67c0,1.474,0.949,2.67,2.424,2.67
	C46.728,46.833,55,38.316,55,27.847c0-0.002,0-0.004,0-0.007C55,21.945,50.466,17.167,44.57,17.167z"/>
<path d="M19.555,17.167c-5.898,0-10.563,4.782-10.563,10.68c0,5.898,4.84,10.68,10.739,10.68c0.059,0,0.146-0.008,0.205-0.009
	c-2.332,1.857-5.262,2.976-8.468,2.976c-1.475,0-2.663,1.196-2.663,2.67c0,1.474,0.964,2.67,2.439,2.67
	C21.713,46.833,30,38.316,30,27.847c0-0.002,0-0.004,0-0.007C30,21.945,25.451,17.167,19.555,17.167z"/>
</svg>
