<svg width="29.1" xmlns="http://www.w3.org/2000/svg" height="25.682" viewBox="0 0 29.1 25.682" xmlns:xlink="http://www.w3.org/1999/xlink" enable-background="new 0 0 29.1 25.682">
<path d="m27.871,0h-26.641c-.679,0-1.23,.551-1.23,1.23v18.704c0,.679 .551,1.23 1.23,1.23h4.815v3.536c0,.955 .626,1.268 1.39,.697l5.665-4.232h14.77c.679,0 1.23-.551 1.23-1.23v-18.705c.001-.679-.55-1.23-1.229-1.23zm-20.032,12.339c-1.051,0-1.903-.852-1.903-1.903 0-1.051 .852-1.903 1.903-1.903 1.051,0 1.903,.852 1.903,1.903-.001,1.051-.853,1.903-1.903,1.903zm6.712,0c-1.051,0-1.903-.852-1.903-1.903 0-1.051 .852-1.903 1.903-1.903 1.051,0 1.903,.852 1.903,1.903-.001,1.051-.853,1.903-1.903,1.903zm6.712,0c-1.051,0-1.903-.852-1.903-1.903 0-1.051 .852-1.903 1.903-1.903 1.051,0 1.903,.852 1.903,1.903 0,1.051-.852,1.903-1.903,1.903z"/>
</svg>
