<?xml version="1.0" encoding="utf-8"?>
<!-- Generator: Adobe Illustrator 16.0.4, SVG Export Plug-In . SVG Version: 6.00 Build 0)  -->
<!DOCTYPE svg PUBLIC "-//W3C//DTD SVG 1.1//EN" "http://www.w3.org/Graphics/SVG/1.1/DTD/svg11.dtd">
<svg version="1.1" id="Capa_1" xmlns="http://www.w3.org/2000/svg" xmlns:xlink="http://www.w3.org/1999/xlink" x="0px" y="0px"
	 width="33.283px" height="46.15px" viewBox="0 0 33.283 46.15" enable-background="new 0 0 33.283 46.15" xml:space="preserve">
<path d="M3.805,15.398c-4.24,3.229-5.061,9.283-1.832,13.523s9.284,5.061,13.524,1.832c1.902-1.449,3.109-3.469,3.579-5.637
	c-1.646,0.028-4.01-0.21-6.988-1.263c3.21-0.523,5.394-2.227,6.745-3.718c-0.327-1.02-0.818-2.006-1.505-2.907
	C14.1,12.99,8.044,12.169,3.805,15.398z M11.189,18.518c-0.668,0.508-1.621,0.379-2.127-0.288c-0.508-0.667-0.378-1.618,0.288-2.127
	c0.668-0.508,1.62-0.379,2.127,0.288S11.855,18.011,11.189,18.518z M21.468,22.723c0,0.592-0.09,1.152-0.225,1.685l2.238,1.786
	c0.349-1.065,0.547-2.235,0.547-3.471c0-1.332-0.241-2.58-0.645-3.71l-2.228,1.663C21.356,21.306,21.468,21.998,21.468,22.723z
	 M27.632,16.446l-2.236,1.67c0.511,1.395,0.806,2.955,0.806,4.608c0,1.575-0.269,3.067-0.732,4.411l2.205,1.758
	c0.688-1.862,1.089-3.952,1.089-6.167C28.76,20.464,28.349,18.334,27.632,16.446z M29.476,29.684l2.203,1.758
	c1.021-2.612,1.604-5.574,1.604-8.719c0-3.139-0.584-6.095-1.601-8.705l-2.236,1.671c0.81,2.114,1.275,4.501,1.275,7.034
	C30.724,25.227,30.267,27.589,29.476,29.684z"/>
</svg>
