<?xml version="1.0" encoding="utf-8"?>
<!-- Generator: Adobe Illustrator 17.0.0, SVG Export Plug-In . SVG Version: 6.00 Build 0)  -->
<!DOCTYPE svg PUBLIC "-//W3C//DTD SVG 1.1//EN" "http://www.w3.org/Graphics/SVG/1.1/DTD/svg11.dtd">
<svg version="1.1" id="Capa_1" xmlns="http://www.w3.org/2000/svg" xmlns:xlink="http://www.w3.org/1999/xlink" x="0px" y="0px"
	 width="33.59px" height="21.804px" viewBox="0 0 33.59 21.804" enable-background="new 0 0 33.59 21.804" xml:space="preserve">
<path d="M16.326,8.613H7.352V6.996h8.975V8.613z M17.85,8.613h4.432V6.996H17.85V8.613z M7.352,11.71h14.93v-1.617H7.352V11.71z
	 M14.475,14.809h7.807v-1.617h-7.807V14.809z M7.352,14.809h5.613v-1.617H7.352V14.809z M32.545,19.202l-3.069,0.779
	c-0.616,0.157-1.285,0.235-1.986,0.235c-1.363,0-2.883-0.294-4.525-0.877c-2.343,1.169-5.067,1.786-7.909,1.786
	c-7.725,0-14.01-4.587-14.01-10.224c0-5.638,6.285-10.224,14.01-10.224c7.725,0,14.011,4.587,14.011,10.224
	c0,2.063-0.82,4.018-2.379,5.704c0.735,0.654,1.694,1.183,2.858,1.578L32.545,19.202z M25.59,18.137
	c-0.347-0.294-0.66-0.609-0.94-0.946l-0.571-0.688l0.66-0.603c1.604-1.465,2.452-3.193,2.452-4.997
	c-0.002-4.603-5.446-8.348-12.137-8.348c-6.691,0-12.135,3.745-12.135,8.348s5.444,8.348,12.135,8.348
	c2.69,0,5.25-0.608,7.403-1.758l0.375-0.201l0.399,0.15C24.061,17.754,24.849,17.987,25.59,18.137z"/>
</svg>
