<svg width="27.164" xmlns="http://www.w3.org/2000/svg" height="27.75" viewBox="0 0 27.164 27.75" xmlns:xlink="http://www.w3.org/1999/xlink" enable-background="new 0 0 27.164 27.75">
<path d="M13.582,27.75l-4.268-7.392H3.98c-2.195,0-3.98-1.619-3.98-3.61V3.61C0,1.619,1.785,0,3.98,0h19.203   c2.195,0,3.98,1.619,3.98,3.61v13.138c0,1.991-1.785,3.61-3.98,3.61H17.85L13.582,27.75z M3.98,2C2.889,2,2,2.722,2,3.61v13.138   c0,0.888,0.889,1.61,1.98,1.61h6.486l3.113,5.392l3.113-5.392h6.49c1.092,0,1.979-0.722,1.979-1.61V3.61   c0-0.888-0.889-1.61-1.979-1.61H3.98z"/>
</svg>
