<?xml version="1.0" encoding="utf-8"?>
<!-- Generator: Adobe Illustrator 17.0.0, SVG Export Plug-In . SVG Version: 6.00 Build 0)  -->
<!DOCTYPE svg PUBLIC "-//W3C//DTD SVG 1.1//EN" "http://www.w3.org/Graphics/SVG/1.1/DTD/svg11.dtd">
<svg version="1.1" id="Capa_1" xmlns="http://www.w3.org/2000/svg" xmlns:xlink="http://www.w3.org/1999/xlink" x="0px" y="0px"
	 width="28.459px" height="22.543px" viewBox="0 0 28.459 22.543" enable-background="new 0 0 28.459 22.543" xml:space="preserve">
<path d="M14.944,1.275c-6.676,0-11.906,3.418-11.906,7.782c0,0.247,0.022,0.489,0.054,0.728c0.7-0.501,1.517-0.916,2.418-1.235
	c0.47-2.677,4.597-4.849,9.433-4.849c5.139,0,9.48,2.454,9.48,5.357c0,2.084-2.24,3.931-5.401,4.81
	c0.027,0.213,0.044,0.428,0.044,0.648c0,0.679-0.139,1.331-0.392,1.944c4.793-1.003,8.173-3.896,8.173-7.403
	C26.85,4.693,21.62,1.275,14.944,1.275z M9.733,9.057c-1.533,0-2.949,0.277-4.16,0.754c-0.821,0.324-1.549,0.738-2.146,1.228
	c-1.14,0.937-1.816,2.144-1.816,3.477c0,1.084,0.455,2.081,1.235,2.922l-0.86,3.829l3.984-1.899c1.12,0.387,2.395,0.605,3.764,0.605
	c3.39,0,6.231-1.329,7.464-3.271c0.423-0.667,0.659-1.404,0.659-2.186c0-0.124-0.015-0.246-0.027-0.368
	C17.554,11.267,14.102,9.057,9.733,9.057z M13.416,16.773c-0.968,0.462-2.219,0.775-3.683,0.775c-3.358,0-5.697-1.598-5.697-3.032
	c0-0.467,0.27-0.948,0.721-1.389c0.506-0.494,1.261-0.926,2.212-1.225c0.803-0.253,1.727-0.418,2.764-0.418
	c3.269,0,5.554,1.514,5.674,2.917c0.004,0.038,0.023,0.077,0.023,0.115C15.429,15.325,14.667,16.175,13.416,16.773z"/>
</svg>
