<?xml version="1.0" encoding="utf-8"?>
<!-- Generator: Adobe Illustrator 17.0.0, SVG Export Plug-In . SVG Version: 6.00 Build 0)  -->
<!DOCTYPE svg PUBLIC "-//W3C//DTD SVG 1.1//EN" "http://www.w3.org/Graphics/SVG/1.1/DTD/svg11.dtd">
<svg version="1.1" id="Capa_1" xmlns="http://www.w3.org/2000/svg" xmlns:xlink="http://www.w3.org/1999/xlink" x="0px" y="0px"
	 width="64px" height="64px" viewBox="0 0 64 64" enable-background="new 0 0 64 64" xml:space="preserve">
<path d="M50.666,24H13.333C8.179,24,4,28.179,4,33.334v0.333C4,38.821,8.179,43,13.333,43h37.334C55.821,43,60,38.821,60,33.667
	v-0.334C60,28.179,55.821,24,50.666,24z M12.586,36.002c-1.129,0-2.045-0.916-2.045-2.045c0-1.129,0.916-2.045,2.045-2.045
	s2.045,0.916,2.045,2.045C14.631,35.086,13.715,36.002,12.586,36.002z M19.062,36.002c-1.129,0-2.045-0.916-2.045-2.045
	c0-1.129,0.916-2.045,2.045-2.045c1.129,0,2.045,0.916,2.045,2.045C21.107,35.086,20.191,36.002,19.062,36.002z M25.539,36.002
	c-1.129,0-2.045-0.916-2.045-2.045c0-1.129,0.916-2.045,2.045-2.045s2.045,0.916,2.045,2.045
	C27.584,35.086,26.668,36.002,25.539,36.002z M34,39c0,0.828-0.672,1.5-1.5,1.5c-0.829,0-1.5-0.672-1.5-1.5V28
	c0-0.829,0.671-1.5,1.5-1.5c0.828,0,1.5,0.671,1.5,1.5V39z"/>
</svg>
