<?xml version="1.0" encoding="utf-8"?>
<!-- Generator: Adobe Illustrator 16.0.4, SVG Export Plug-In . SVG Version: 6.00 Build 0)  -->
<!DOCTYPE svg PUBLIC "-//W3C//DTD SVG 1.1//EN" "http://www.w3.org/Graphics/SVG/1.1/DTD/svg11.dtd">
<svg version="1.1" id="Capa_1" xmlns="http://www.w3.org/2000/svg" xmlns:xlink="http://www.w3.org/1999/xlink" x="0px" y="0px"
	 width="28.668px" height="46.938px" viewBox="0 0 28.668 46.938" enable-background="new 0 0 28.668 46.938" xml:space="preserve">
<path d="M16.857,23.542c0,0.593-0.09,1.152-0.229,1.685l2.24,1.785c0.346-1.064,0.545-2.235,0.545-3.47
	c0-1.332-0.242-2.58-0.645-3.709l-2.227,1.662C16.746,22.126,16.857,22.817,16.857,23.542z M23.02,17.265l-2.234,1.67
	c0.51,1.395,0.803,2.954,0.803,4.606c0,1.574-0.268,3.064-0.729,4.408l2.205,1.758c0.688-1.862,1.086-3.951,1.086-6.166
	C24.146,21.282,23.734,19.156,23.02,17.265z M24.859,30.502l2.205,1.759c1.018-2.611,1.604-5.572,1.604-8.718
	c0-3.137-0.584-6.092-1.598-8.7l-2.236,1.67c0.809,2.112,1.273,4.499,1.273,7.03C26.107,26.047,25.65,28.406,24.859,30.502z
	 M0,17.573h6.291v11.793H0V17.573z M13.648,33.907l-6.291-4.541V17.573l6.291-4.543V33.907z"/>
</svg>
