<?xml version="1.0" encoding="utf-8"?>
<!-- Generator: Adobe Illustrator 17.0.0, SVG Export Plug-In . SVG Version: 6.00 Build 0)  -->
<!DOCTYPE svg PUBLIC "-//W3C//DTD SVG 1.1//EN" "http://www.w3.org/Graphics/SVG/1.1/DTD/svg11.dtd">
<svg version="1.1" id="Capa_1" xmlns="http://www.w3.org/2000/svg" xmlns:xlink="http://www.w3.org/1999/xlink" x="0px" y="0px"
	 width="64px" height="64px" viewBox="0 0 64 64" enable-background="new 0 0 64 64" xml:space="preserve">
<path d="M47.359,17.801c-0.438-0.163-0.657-0.245-1.095-0.408c-6.008-2.238-12.529,0.387-14.56,5.852
	c-1.103,2.967-0.719,6.403,1.096,8.971c0.525,0.742,1.124,1.44,1.739,2.109c0.702,0.762,1.482,1.469,2.389,1.979
	c1.843,1.038,3.928,0.984,5.929,0.485c1.307-0.326,2.572-0.804,3.832-1.275c-1.428,0.533-2.682,1.451-4.154,1.926
	c-1.516,0.489-3.078,0.586-4.622,0.166c-0.858-0.233-1.819-0.556-2.59-1.005c-0.925-0.539-1.838-1.113-2.578-1.895
	c-0.037-0.039-0.067-0.07-0.1-0.105L5.228,34.334c11.328,2.692,21.412,5.949,32.17,10.403c7.769,3.496,16.081,0.699,19.019-7.22
	C59.355,29.598,55.304,20.762,47.359,17.801z"/>
</svg>
