<?xml version="1.0" encoding="UTF-8" standalone="no"?>
<!-- Generator: Adobe Illustrator 16.0.0, SVG Export Plug-In . SVG Version: 6.00 Build 0)  -->

<svg
   xmlns:dc="http://purl.org/dc/elements/1.1/"
   xmlns:cc="http://creativecommons.org/ns#"
   xmlns:rdf="http://www.w3.org/1999/02/22-rdf-syntax-ns#"
   xmlns:svg="http://www.w3.org/2000/svg"
   xmlns="http://www.w3.org/2000/svg"
   xmlns:sodipodi="http://sodipodi.sourceforge.net/DTD/sodipodi-0.dtd"
   xmlns:inkscape="http://www.inkscape.org/namespaces/inkscape"
   version="1.1"
   id="Capa_1"
   x="0px"
   y="0px"
   width="151.314px"
   height="151.313px"
   viewBox="0 0 151.314 151.313"
   style="enable-background:new 0 0 151.314 151.313;"
   xml:space="preserve"
   inkscape:version="0.91 r"
   sodipodi:docname="broken22.svg"><metadata
     id="metadata41"><rdf:RDF><cc:Work
         rdf:about=""><dc:format>image/svg+xml</dc:format><dc:type
           rdf:resource="http://purl.org/dc/dcmitype/StillImage" /></cc:Work></rdf:RDF></metadata><defs
     id="defs39" /><sodipodi:namedview
     pagecolor="#ffffff"
     bordercolor="#666666"
     borderopacity="1"
     objecttolerance="10"
     gridtolerance="10"
     guidetolerance="10"
     inkscape:pageopacity="0"
     inkscape:pageshadow="2"
     inkscape:window-width="1366"
     inkscape:window-height="743"
     id="namedview37"
     showgrid="false"
     inkscape:zoom="16"
     inkscape:cx="48.638514"
     inkscape:cy="136.91782"
     inkscape:window-x="0"
     inkscape:window-y="0"
     inkscape:window-maximized="1"
     inkscape:current-layer="Capa_1" /><g
     id="g3"><path
       d="M151.025,41.322c-3.02-33.727-32.143-37.806-53.604-28.115L84.736,49.251l25.848-8.195L90.091,71.863l22.639-9.369   l-41.358,64.31l12.105-44.136l-16.645,9.581l14.629-31.776L62.991,61.1l6.088-37.19C50.285,3.481,4.14-1.623,0.289,41.316   c-5.719,63.925,75.369,101.375,75.369,101.375S156.741,105.241,151.025,41.322z"
       id="path5" /></g><g
     id="g7" /><g
     id="g9" /><g
     id="g11" /><g
     id="g13" /><g
     id="g15" /><g
     id="g17" /><g
     id="g19" /><g
     id="g21" /><g
     id="g23" /><g
     id="g25" /><g
     id="g27" /><g
     id="g29" /><g
     id="g31" /><g
     id="g33" /><g
     id="g35" /><path
     style="fill:none;fill-rule:evenodd;stroke:#000000;stroke-width:1px;stroke-linecap:butt;stroke-linejoin:miter;stroke-opacity:1"
     d="m 66.291261,24.564113 -6.187185,39.06765 18.384776,-1.06066 -16.793786,34.648232 19.79899,-11.313709 -12.197592,42.249634 0.53033,2.29809 L 117.20295,60.449782 93.691648,68.758287 114.37452,38.706249 88.388347,46.6612 99.702056,14.134288 123.39013,11.305861 140.71425,24.21056 147.07821,58.682015 136.64839,86.966287 115.08163,111.00792 76.544309,141.05996 52.856232,127.0946 15.556349,89.794714 c 0,0 -12.3743685,-34.117902 -12.3743685,-34.825009 0,-0.707107 4.065864,-25.455844 4.065864,-25.455844 L 21.92031,15.548502 c 0,0 22.98097,-0.883884 23.688077,-0.883884 0.707107,0 18.915107,9.192389 19.622213,9.192389 0.707107,0 1.060661,0.707106 1.060661,0.707106 z"
     id="path3369"
     inkscape:connector-curvature="0" /></svg>