<?xml version="1.0" encoding="iso-8859-1"?>
<!-- Generator: Adobe Illustrator 18.0.0, SVG Export Plug-In . SVG Version: 6.00 Build 0)  -->
<!DOCTYPE svg PUBLIC "-//W3C//DTD SVG 1.1//EN" "http://www.w3.org/Graphics/SVG/1.1/DTD/svg11.dtd">
<svg version="1.1" id="Capa_1" xmlns="http://www.w3.org/2000/svg" xmlns:xlink="http://www.w3.org/1999/xlink" x="0px" y="0px"
	 viewBox="0 0 369.819 369.819" style="enable-background:new 0 0 369.819 369.819;" xml:space="preserve">
<g>
	<path d="M184.911,103.021c-47.26,0-85.575,38.3-85.575,85.552c0,47.272,38.315,85.572,85.575,85.572
		c47.258,0,85.573-38.3,85.573-85.572C270.484,141.321,232.169,103.021,184.911,103.021z"/>
	<polygon points="295.701,39.038 263.134,77.847 280.381,92.323 312.948,53.501 	"/>
	<polygon points="369.819,167.412 365.912,145.235 316.011,154.026 319.923,176.202 	"/>
	<polygon points="296.293,265.891 340.164,291.22 351.42,271.714 307.551,246.379 	"/>
	<polygon points="220.541,319.387 237.872,367.006 259.028,359.292 241.701,311.695 	"/>
	<polygon points="110.791,359.292 131.945,367.006 149.276,319.387 128.121,311.695 	"/>
	<polygon points="18.396,271.713 29.652,291.219 73.527,265.891 62.268,246.379 	"/>
	<polygon points="53.806,154.026 3.909,145.234 0,167.411 49.894,176.202 	"/>
	<polygon points="74.117,39.038 56.873,53.501 89.44,92.322 106.684,77.846 	"/>
	<rect x="173.652" y="2.813" width="22.516" height="50.655"/>
</g>
<g>
</g>
<g>
</g>
<g>
</g>
<g>
</g>
<g>
</g>
<g>
</g>
<g>
</g>
<g>
</g>
<g>
</g>
<g>
</g>
<g>
</g>
<g>
</g>
<g>
</g>
<g>
</g>
<g>
</g>
</svg>
