<?xml version="1.0" encoding="iso-8859-1"?>
<!-- Generator: Adobe Illustrator 18.0.0, SVG Export Plug-In . SVG Version: 6.00 Build 0)  -->
<!DOCTYPE svg PUBLIC "-//W3C//DTD SVG 1.1//EN" "http://www.w3.org/Graphics/SVG/1.1/DTD/svg11.dtd">
<svg version="1.1" id="Capa_1" xmlns="http://www.w3.org/2000/svg" xmlns:xlink="http://www.w3.org/1999/xlink" x="0px" y="0px"
	 viewBox="0 0 379.803 379.803" style="enable-background:new 0 0 379.803 379.803;" xml:space="preserve">
<g>
	<polygon points="329.521,57.2 128.333,57.2 118.002,39.804 32.627,39.804 32.627,96.786 329.521,96.786 	"/>
	<path d="M306.403,180.416c12.498,0,24.375,2.674,35.139,7.438l7.546-73.75H0l32.627,191.162H228.09
		c-5.559-11.455-8.675-24.297-8.675-37.852C219.415,219.447,258.432,180.416,306.403,180.416z"/>
	<path d="M309.12,198.637c-39.036,0-70.683,31.639-70.683,70.681c0,39.029,31.647,70.682,70.683,70.682
		c39.042,0,70.683-31.652,70.683-70.682C379.803,230.275,348.162,198.637,309.12,198.637z M346.434,288.861l-16.631,16.634
		l-19.546-19.558l-19.548,19.558l-16.629-16.634l19.542-19.544l-19.542-19.557l16.629-16.621l19.548,19.545l19.546-19.545
		l16.631,16.621l-19.55,19.557L346.434,288.861z"/>
</g>
<g>
</g>
<g>
</g>
<g>
</g>
<g>
</g>
<g>
</g>
<g>
</g>
<g>
</g>
<g>
</g>
<g>
</g>
<g>
</g>
<g>
</g>
<g>
</g>
<g>
</g>
<g>
</g>
<g>
</g>
</svg>
