<?xml version="1.0" encoding="iso-8859-1"?>
<!-- Generator: Adobe Illustrator 18.0.0, SVG Export Plug-In . SVG Version: 6.00 Build 0)  -->
<!DOCTYPE svg PUBLIC "-//W3C//DTD SVG 1.1//EN" "http://www.w3.org/Graphics/SVG/1.1/DTD/svg11.dtd">
<svg version="1.1" id="Capa_1" xmlns="http://www.w3.org/2000/svg" xmlns:xlink="http://www.w3.org/1999/xlink" x="0px" y="0px"
	 viewBox="0 0 382.814 382.814" style="enable-background:new 0 0 382.814 382.814;" xml:space="preserve">
<path d="M191.407,0.009C85.868,0.009,0,85.868,0,191.398c0,105.543,85.868,191.407,191.407,191.407
	c105.542,0,191.407-85.864,191.407-191.407C382.814,85.868,296.949,0.009,191.407,0.009z M191.407,51.181
	c75.368,0,137.045,59.79,140.073,134.436c-32.205-11.234-65.185-18.534-98.609-21.836c-8.937-13.385-24.169-22.193-41.464-22.193
	c-17.303,0-32.527,8.808-41.464,22.194c-33.47,3.302-66.403,10.602-98.656,21.836C54.361,110.971,116.024,51.181,191.407,51.181z
	 M60.664,242.106c29.565-11.142,59.731-18.425,90.123-21.85c3.673,5.15,8.269,9.554,13.603,12.992v95.763
	C116.854,319.688,77.872,286.298,60.664,242.106z M218.426,329.012v-95.763c5.287-3.438,9.918-7.843,13.566-12.994
	c30.382,3.424,60.589,10.708,90.158,21.85C304.938,286.297,265.939,319.688,218.426,329.012z"/>
<g>
</g>
<g>
</g>
<g>
</g>
<g>
</g>
<g>
</g>
<g>
</g>
<g>
</g>
<g>
</g>
<g>
</g>
<g>
</g>
<g>
</g>
<g>
</g>
<g>
</g>
<g>
</g>
<g>
</g>
</svg>
