<?xml version="1.0" encoding="iso-8859-1"?>
<!-- Generator: Adobe Illustrator 18.0.0, SVG Export Plug-In . SVG Version: 6.00 Build 0)  -->
<!DOCTYPE svg PUBLIC "-//W3C//DTD SVG 1.1//EN" "http://www.w3.org/Graphics/SVG/1.1/DTD/svg11.dtd">
<svg version="1.1" id="Capa_1" xmlns="http://www.w3.org/2000/svg" xmlns:xlink="http://www.w3.org/1999/xlink" x="0px" y="0px"
	 viewBox="0 0 335.441 335.441" style="enable-background:new 0 0 335.441 335.441;" xml:space="preserve">
<g>
	<g>
		<path d="M300.412,195.412c2.422-7.954,4.137-16.21,5.072-24.698h-80.338c-6.855,25.302-29.961,43.927-57.424,43.927
			c-27.465,0-50.576-18.625-57.43-43.927H29.94c0.947,8.488,2.66,16.744,5.082,24.698L0,215.637l31.467,54.529l35.057-20.242
			c7.582,8.088,16.123,15.263,25.434,21.348l-13.855,38.026l59.17,21.535l13.855-38.025c5.441,0.649,10.98,0.987,16.596,0.987
			c5.605,0,11.145-0.338,16.586-0.987l13.838,38.024l59.176-21.533l-13.84-38.028c9.307-6.086,17.854-13.26,25.43-21.347
			l35.057,20.242l31.473-54.531L300.412,195.412z"/>
	</g>
	<g>
		<polygon points="195.572,4.608 139.869,4.608 139.869,87.568 109.477,87.568 167.723,170.715 225.963,87.566 195.572,87.566 		"/>
	</g>
</g>
<g>
</g>
<g>
</g>
<g>
</g>
<g>
</g>
<g>
</g>
<g>
</g>
<g>
</g>
<g>
</g>
<g>
</g>
<g>
</g>
<g>
</g>
<g>
</g>
<g>
</g>
<g>
</g>
<g>
</g>
</svg>
