<?xml version="1.0" encoding="iso-8859-1"?>
<!-- Generator: Adobe Illustrator 18.0.0, SVG Export Plug-In . SVG Version: 6.00 Build 0)  -->
<!DOCTYPE svg PUBLIC "-//W3C//DTD SVG 1.1//EN" "http://www.w3.org/Graphics/SVG/1.1/DTD/svg11.dtd">
<svg version="1.1" id="Capa_1" xmlns="http://www.w3.org/2000/svg" xmlns:xlink="http://www.w3.org/1999/xlink" x="0px" y="0px"
	 viewBox="0 0 394.704 394.704" style="enable-background:new 0 0 394.704 394.704;" xml:space="preserve">
<g>
	<g>
		<path d="M134.539,95.134c3.951-20.017,9.296-38.543,15.929-54.827c3.36-8.252,7.015-15.772,10.909-22.563
			c-48.275,17.567-86.645,55.94-104.213,104.221c6.775-3.897,14.307-7.542,22.558-10.902
			C96.01,104.424,114.535,99.084,134.539,95.134z"/>
	</g>
	<g>
		<path d="M306.9,95.134c20.006,3.95,38.531,9.289,54.819,15.929c8.253,3.359,15.78,7.005,22.558,10.902
			c-17.565-48.281-55.935-86.654-104.213-104.221c3.895,6.791,7.54,14.311,10.908,22.563
			C297.606,56.591,302.942,75.118,306.9,95.134z"/>
	</g>
	<g>
		<path d="M169.45,272.76c2.91,12.411,6.365,23.551,10.148,33.353c-4.642,0.018-9.222-0.763-13.48-2.357
			c-7.379-2.745-13.66-7.972-17.735-14.723c-0.278-0.474-0.569-0.977-0.829-1.503l5.505-2.012
			c9.84-3.608,16.802-12.672,17.725-23.112c0.939-10.435-4.3-20.594-13.337-25.881l-29.436-17.221
			c-0.99-12.406-1.504-25.116-1.504-38.001c0-17.528,0.945-34.723,2.755-51.273c-52.482,12.361-82.496,34.08-82.521,51.251
			c0,0.006,0,0.015,0,0.021c0,0.006,0,0.014,0,0.021c0.002,1.66,0.282,3.369,0.834,5.099c-6.312,3.115-11.187,8.563-13.562,15.308
			l-32.48,91.84c-3.48,9.876-0.913,21.025,6.52,28.389c5.136,5.063,11.917,7.855,19.116,7.855c3.199,0,6.35-0.558,9.34-1.656
			l5.545-2.026c0.547,0.801,1.092,1.583,1.635,2.337c25.722,36.048,65.475,58.057,106.305,58.885
			c0.847,0.019,1.669,0.028,2.514,0.028c23.721,0,46.401-6.76,65.564-19.555c16.564-11.054,29.322-27.128,37.178-46.668
			c6.381-12.849,12.208-29.095,16.745-48.401c-16.548,1.809-33.752,2.755-51.281,2.755
			C203.188,275.515,185.994,274.569,169.45,272.76z M228.23,307.129c-5.384,15.494-14.745,28.892-28.526,38.096
			c-15.486,10.339-33.842,15.331-52.421,14.947c-34.334-0.688-65.098-20.001-84.711-47.483c-4.496-6.3-8.2-13.086-12.031-19.801
			l-26.636,9.741l32.465-91.839l84.084,49.193l-28.762,10.529c2.098,11.44,4.04,22.403,10.151,32.559
			c7.237,12.033,18.323,21.246,31.503,26.16c14.162,5.281,29.502,5.37,43.851,0.764C209.953,325.804,219.988,317.5,228.23,307.129z"
			/>
	</g>
	<g>
		<path d="M271.994,89.848C259.623,37.337,237.898,7.32,220.712,7.32c-17.171,0-38.905,30.017-51.263,82.528
			c16.544-1.801,33.738-2.757,51.263-2.757C238.242,87.091,255.446,88.047,271.994,89.848z"/>
	</g>
	<g>
		<path d="M312.17,130.03c1.819,16.55,2.753,33.745,2.753,51.273c0,17.528-0.934,34.726-2.753,51.276
			c52.49-12.366,82.508-34.081,82.533-51.254c0-0.008,0-0.016,0-0.021c0-0.006,0-0.015,0-0.021
			C394.678,164.11,364.661,142.391,312.17,130.03z"/>
	</g>
	<g>
		<path d="M306.9,267.482c-3.958,20.018-9.294,38.534-15.928,54.819c-3.368,8.25-7.014,15.782-10.908,22.56
			c48.278-17.57,86.648-55.939,104.213-104.215c-6.777,3.893-14.305,7.54-22.558,10.907
			C345.431,258.188,326.906,263.524,306.9,267.482z"/>
	</g>
	<g>
		<path d="M278.153,123.87c-17.494-2.316-36.691-3.64-57.44-3.64c-20.734,0-39.939,1.324-57.425,3.64
			c-2.322,17.487-3.638,36.688-3.638,57.433c0,20.752,1.315,39.95,3.638,57.444c17.485,2.307,36.69,3.628,57.425,3.628
			c20.749,0,39.946-1.32,57.44-3.628c2.314-17.494,3.642-36.691,3.642-57.444C281.794,160.558,280.467,141.357,278.153,123.87z"/>
	</g>
</g>
<g>
</g>
<g>
</g>
<g>
</g>
<g>
</g>
<g>
</g>
<g>
</g>
<g>
</g>
<g>
</g>
<g>
</g>
<g>
</g>
<g>
</g>
<g>
</g>
<g>
</g>
<g>
</g>
<g>
</g>
</svg>
