<?xml version="1.0" encoding="iso-8859-1"?>
<!-- Generator: Adobe Illustrator 18.0.0, SVG Export Plug-In . SVG Version: 6.00 Build 0)  -->
<!DOCTYPE svg PUBLIC "-//W3C//DTD SVG 1.1//EN" "http://www.w3.org/Graphics/SVG/1.1/DTD/svg11.dtd">
<svg version="1.1" id="Capa_1" xmlns="http://www.w3.org/2000/svg" xmlns:xlink="http://www.w3.org/1999/xlink" x="0px" y="0px"
	 viewBox="0 0 406.558 406.558" style="enable-background:new 0 0 406.558 406.558;" xml:space="preserve">
<g>
	<g>
		<path d="M0,53.765v250.089h250.109c-1.805-7.003-2.737-14.308-2.737-21.731c0-20.003,6.716-38.934,19.041-54.305l-63.373-36.462
			l-17.273,9.928c-1.677,0.977-3.547,1.463-5.422,1.463c-1.863,0-3.74-0.486-5.419-1.463l-17.267-9.928L49.652,253.47
			c-1.708,0.988-3.576,1.46-5.407,1.46c-3.767,0-7.434-1.959-9.44-5.456c-2.998-5.19-1.203-11.854,4.009-14.844l97.034-55.823
			l-97.034-55.822c-5.212-2.979-7.007-9.625-4.009-14.846c2.993-5.19,9.637-7.003,14.848-3.991l130.692,75.171l130.704-75.171
			c5.199-3.011,11.85-1.198,14.848,3.991c2.99,5.221,1.194,11.866-4.008,14.846l-97.04,55.822l57.862,33.295
			c14.869-11.017,32.809-16.975,51.652-16.975c9.075,0,17.923,1.385,26.333,4.045V53.765H0z"/>
	</g>
	<path d="M385.853,232.131c-27.6-27.6-72.359-27.6-99.953,0c-27.607,27.612-27.607,72.36,0,99.968
		c27.594,27.592,72.353,27.592,99.953,0C413.46,304.492,413.46,259.744,385.853,232.131z M335.87,331.049
		c-45.977-15.932-40.306-55.185-40.306-82.581c16.697,0,29.49-4.754,40.306-15.295c10.827,10.541,23.611,15.295,40.315,15.295
		C376.185,275.865,381.851,315.118,335.87,331.049z"/>
	<g>
		<path d="M304.622,257.189c10.061-1.048,18.816-3.931,26.668-8.797v30.673h-26.218
			C304.362,271.736,304.495,264.207,304.622,257.189z"/>
	</g>
	<g>
		<path d="M353.417,310.466c-3.494,3.402-7.836,6.332-12.956,8.794V288.25h24.815c-0.528,2.378-1.194,4.722-2.03,6.989
			C361.025,301.263,357.809,306.246,353.417,310.466z"/>
	</g>
</g>
<g>
</g>
<g>
</g>
<g>
</g>
<g>
</g>
<g>
</g>
<g>
</g>
<g>
</g>
<g>
</g>
<g>
</g>
<g>
</g>
<g>
</g>
<g>
</g>
<g>
</g>
<g>
</g>
<g>
</g>
</svg>
