<?xml version="1.0" encoding="iso-8859-1"?>
<!-- Generator: Adobe Illustrator 18.0.0, SVG Export Plug-In . SVG Version: 6.00 Build 0)  -->
<!DOCTYPE svg PUBLIC "-//W3C//DTD SVG 1.1//EN" "http://www.w3.org/Graphics/SVG/1.1/DTD/svg11.dtd">
<svg version="1.1" id="Capa_1" xmlns="http://www.w3.org/2000/svg" xmlns:xlink="http://www.w3.org/1999/xlink" x="0px" y="0px"
	 viewBox="0 0 406.561 406.561" style="enable-background:new 0 0 406.561 406.561;" xml:space="preserve">
<g>
	<g>
		<path d="M0,53.767v250.089h250.114c-1.804-7.003-2.737-14.308-2.737-21.731c0-20.003,6.713-38.934,19.038-54.305l-63.366-36.462
			l-17.278,9.928c-1.679,0.977-3.544,1.463-5.421,1.463c-1.866,0-3.741-0.486-5.423-1.463l-17.265-9.928L49.659,253.472
			c-1.71,0.988-3.576,1.46-5.412,1.46c-3.769,0-7.43-1.959-9.438-5.456c-2.998-5.19-1.204-11.854,4.004-14.844l97.035-55.823
			l-97.035-55.822c-5.208-2.979-7.002-9.625-4.004-14.846c2.99-5.19,9.641-7.003,14.851-3.991l130.69,75.171l130.701-75.171
			c5.199-3.011,11.85-1.198,14.846,3.991c2.991,5.221,1.198,11.866-4.003,14.846l-97.04,55.822l57.86,33.295
			c14.873-11.017,32.804-16.975,51.651-16.975c9.073,0,17.923,1.385,26.334,4.045V53.767H0z"/>
	</g>
	<path d="M385.855,232.133c-27.604-27.601-72.356-27.601-99.956,0c-27.6,27.612-27.6,72.36,0,99.968
		c27.6,27.592,72.353,27.592,99.956,0C413.463,304.493,413.463,259.745,385.855,232.133z M348.434,322.321h-23.515v-27.634
		l-26.008,0.001l-0.001-23.519l26.009-0.001l0.001-27.661h23.515l-0.001,27.661l29.283-0.001l0.001,23.519l-29.284,0.001V322.321z"
		/>
</g>
<g>
</g>
<g>
</g>
<g>
</g>
<g>
</g>
<g>
</g>
<g>
</g>
<g>
</g>
<g>
</g>
<g>
</g>
<g>
</g>
<g>
</g>
<g>
</g>
<g>
</g>
<g>
</g>
<g>
</g>
</svg>
