<?xml version="1.0" encoding="iso-8859-1"?>
<!-- Generator: Adobe Illustrator 18.0.0, SVG Export Plug-In . SVG Version: 6.00 Build 0)  -->
<!DOCTYPE svg PUBLIC "-//W3C//DTD SVG 1.1//EN" "http://www.w3.org/Graphics/SVG/1.1/DTD/svg11.dtd">
<svg version="1.1" id="Capa_1" xmlns="http://www.w3.org/2000/svg" xmlns:xlink="http://www.w3.org/1999/xlink" x="0px" y="0px"
	 viewBox="0 0 415.474 415.474" style="enable-background:new 0 0 415.474 415.474;" xml:space="preserve">
<g>
	<path d="M207.735,82.679C93.01,82.679,0,207.745,0,207.745s93.01,125.05,207.735,125.05c114.737,0,207.738-125.05,207.738-125.05
		S322.473,82.679,207.735,82.679z M207.735,291.107c-46.042,0-83.367-37.321-83.367-83.362c0-46.044,37.325-83.376,83.367-83.376
		c46.039,0,83.369,37.332,83.369,83.376C291.104,253.786,253.774,291.107,207.735,291.107z"/>
	<g>
		<path d="M268.635,214.699h-18.479c0-27.881-22.691-50.561-50.573-50.561v-18.49C237.662,145.648,268.635,176.634,268.635,214.699z
			"/>
	</g>
</g>
<g>
</g>
<g>
</g>
<g>
</g>
<g>
</g>
<g>
</g>
<g>
</g>
<g>
</g>
<g>
</g>
<g>
</g>
<g>
</g>
<g>
</g>
<g>
</g>
<g>
</g>
<g>
</g>
<g>
</g>
</svg>
