<?xml version="1.0" encoding="iso-8859-1"?>
<!-- Generator: Adobe Illustrator 18.0.0, SVG Export Plug-In . SVG Version: 6.00 Build 0)  -->
<!DOCTYPE svg PUBLIC "-//W3C//DTD SVG 1.1//EN" "http://www.w3.org/Graphics/SVG/1.1/DTD/svg11.dtd">
<svg version="1.1" id="Capa_1" xmlns="http://www.w3.org/2000/svg" xmlns:xlink="http://www.w3.org/1999/xlink" x="0px" y="0px"
	 viewBox="0 0 317.434 317.434" style="enable-background:new 0 0 317.434 317.434;" xml:space="preserve">
<g>
	<polygon points="128.631,10.734 37.182,10.734 37.182,0 1.043,0 1.043,67.264 37.182,67.264 37.182,56.537 64.561,56.537 
		64.561,100.625 52.045,100.625 52.045,317.434 113.764,317.434 113.764,100.625 101.25,100.625 101.25,56.537 128.631,56.537 
		128.631,67.264 164.77,67.264 164.77,0 128.631,0 	"/>
	<polygon points="285.088,108.402 316.391,54.203 285.088,0 272.975,0 272.975,59.766 234.611,59.766 234.611,0 222.5,0 
		191.209,54.203 222.5,108.402 235.459,108.402 235.459,142.314 222.943,142.314 222.943,317.434 284.658,317.434 284.658,142.314 
		272.154,142.314 272.154,108.402 	"/>
</g>
<g>
</g>
<g>
</g>
<g>
</g>
<g>
</g>
<g>
</g>
<g>
</g>
<g>
</g>
<g>
</g>
<g>
</g>
<g>
</g>
<g>
</g>
<g>
</g>
<g>
</g>
<g>
</g>
<g>
</g>
</svg>
