<?xml version="1.0" encoding="iso-8859-1"?>
<!-- Generator: Adobe Illustrator 18.0.0, SVG Export Plug-In . SVG Version: 6.00 Build 0)  -->
<!DOCTYPE svg PUBLIC "-//W3C//DTD SVG 1.1//EN" "http://www.w3.org/Graphics/SVG/1.1/DTD/svg11.dtd">
<svg version="1.1" id="Capa_1" xmlns="http://www.w3.org/2000/svg" xmlns:xlink="http://www.w3.org/1999/xlink" x="0px" y="0px"
	 viewBox="0 0 316.738 316.738" style="enable-background:new 0 0 316.738 316.738;" xml:space="preserve">
<g>
	<g>
		<path d="M50.637,123.365V6.135H24.176v117.232C10.049,128.725,0,142.385,0,158.374c0,15.976,10.049,29.644,24.176,35v117.229
			h26.461V193.376c14.135-5.355,24.199-19.024,24.199-35.002C74.836,142.383,64.771,128.721,50.637,123.365z"/>
	</g>
	<g>
		<path d="M171.6,67.103V6.135h-26.467v60.97c-14.123,5.367-24.197,19.029-24.197,35c0,15.972,10.074,29.641,24.197,35.01v173.489
			H171.6V137.116c14.133-5.368,24.189-19.04,24.189-35.012C195.789,86.132,185.732,72.47,171.6,67.103z"/>
	</g>
	<g>
		<path d="M316.738,194.651c0-15.973-10.064-29.634-24.176-35V6.135h-26.49v153.515c-14.113,5.364-24.197,19.027-24.197,35.002
			c0,15.974,10.084,29.645,24.197,35.009v80.943h26.49v-80.945C306.674,224.292,316.738,210.623,316.738,194.651z"/>
	</g>
</g>
<g>
</g>
<g>
</g>
<g>
</g>
<g>
</g>
<g>
</g>
<g>
</g>
<g>
</g>
<g>
</g>
<g>
</g>
<g>
</g>
<g>
</g>
<g>
</g>
<g>
</g>
<g>
</g>
<g>
</g>
</svg>
