<?xml version="1.0" encoding="iso-8859-1"?>
<!-- Generator: Adobe Illustrator 18.0.0, SVG Export Plug-In . SVG Version: 6.00 Build 0)  -->
<!DOCTYPE svg PUBLIC "-//W3C//DTD SVG 1.1//EN" "http://www.w3.org/Graphics/SVG/1.1/DTD/svg11.dtd">
<svg version="1.1" id="Capa_1" xmlns="http://www.w3.org/2000/svg" xmlns:xlink="http://www.w3.org/1999/xlink" x="0px" y="0px"
	 viewBox="0 0 347.966 347.966" style="enable-background:new 0 0 347.966 347.966;" xml:space="preserve">
<g>
	<path d="M173.98,0C112.632,0,62.9,49.728,62.9,111.074c0,74.852,62.115,91.079,62.115,116.653c0,1.806,0,4.894,0,8.913h97.941
		c0-4.019,0-7.107,0-8.913c0-25.574,62.109-41.801,62.109-116.653C285.066,49.728,235.328,0,173.98,0z"/>
	<path d="M125.015,335.424c0,0,12.541,12.542,48.965,12.542c36.434,0,48.977-12.542,48.977-12.542s0-13.958,0-31.897h-97.941
		C125.015,321.466,125.015,335.424,125.015,335.424z"/>
	<path d="M125.015,284.413h97.941c0-9.819,0-19.793,0-28.667h-97.941C125.015,264.62,125.015,274.594,125.015,284.413z"/>
</g>
<g>
</g>
<g>
</g>
<g>
</g>
<g>
</g>
<g>
</g>
<g>
</g>
<g>
</g>
<g>
</g>
<g>
</g>
<g>
</g>
<g>
</g>
<g>
</g>
<g>
</g>
<g>
</g>
<g>
</g>
</svg>
