<?xml version="1.0" encoding="iso-8859-1"?>
<!-- Generator: Adobe Illustrator 18.0.0, SVG Export Plug-In . SVG Version: 6.00 Build 0)  -->
<!DOCTYPE svg PUBLIC "-//W3C//DTD SVG 1.1//EN" "http://www.w3.org/Graphics/SVG/1.1/DTD/svg11.dtd">
<svg version="1.1" id="Capa_1" xmlns="http://www.w3.org/2000/svg" xmlns:xlink="http://www.w3.org/1999/xlink" x="0px" y="0px"
	 viewBox="0 0 326.211 326.211" style="enable-background:new 0 0 326.211 326.211;" xml:space="preserve">
<path d="M213.623,268.611c0-2.913-1.102-5.575-2.893-7.614c0-3.827,0-8.991,0-15.97c0-48.388,56.887-54.578,56.887-140.512
	C267.617,46.785,220.822,0,163.113,0c-57.732,0-104.52,46.785-104.52,104.516c0,85.934,56.898,92.124,56.898,140.512v15.97
	c-1.801,2.039-2.9,4.701-2.9,7.614c0,6.381,5.162,11.522,11.518,11.522c-6.355,0-11.518,5.174-11.518,11.515
	c0,6.379,5.162,11.527,11.518,11.527c-6.355,0-11.518,5.171-11.518,11.507c0,6.382,5.162,11.528,11.518,11.528h77.998
	c6.35,0,11.516-5.146,11.516-11.528c0-6.336-5.166-11.507-11.516-11.507c6.35,0,11.516-5.148,11.516-11.527
	c0-6.341-5.166-11.515-11.516-11.515C208.457,280.134,213.623,274.992,213.623,268.611z M194.68,158.775l-13.328-4.605
	l11.025-32.031l-24.605,21.75h-9.344l-24.607-21.75l11.031,32.031l-13.328,4.605l-19.742-57.355l11.344-7.583l39.988,35.366
	l39.982-35.366l11.328,7.582L194.68,158.775z"/>
<g>
</g>
<g>
</g>
<g>
</g>
<g>
</g>
<g>
</g>
<g>
</g>
<g>
</g>
<g>
</g>
<g>
</g>
<g>
</g>
<g>
</g>
<g>
</g>
<g>
</g>
<g>
</g>
<g>
</g>
</svg>
