<?xml version="1.0" encoding="iso-8859-1"?>
<!-- Generator: Adobe Illustrator 18.0.0, SVG Export Plug-In . SVG Version: 6.00 Build 0)  -->
<!DOCTYPE svg PUBLIC "-//W3C//DTD SVG 1.1//EN" "http://www.w3.org/Graphics/SVG/1.1/DTD/svg11.dtd">
<svg version="1.1" id="Capa_1" xmlns="http://www.w3.org/2000/svg" xmlns:xlink="http://www.w3.org/1999/xlink" x="0px" y="0px"
	 viewBox="0 0 343.967 343.967" style="enable-background:new 0 0 343.967 343.967;" xml:space="preserve">
<path d="M343.966,305.52L233.259,194.814c12.639-19.697,19.988-43.106,19.988-68.197C253.247,56.797,196.436,0,126.626,0
	C56.796,0,0.001,56.797,0.001,126.616c0,69.82,56.795,126.616,126.625,126.616c25.082,0,48.488-7.336,68.188-19.974l110.705,110.708
	L343.966,305.52z M126.626,198.865c-39.838,0-72.242-32.412-72.242-72.249s32.404-72.248,72.242-72.248
	c39.826,0,72.24,32.411,72.24,72.248S166.452,198.865,126.626,198.865z"/>
<g>
</g>
<g>
</g>
<g>
</g>
<g>
</g>
<g>
</g>
<g>
</g>
<g>
</g>
<g>
</g>
<g>
</g>
<g>
</g>
<g>
</g>
<g>
</g>
<g>
</g>
<g>
</g>
<g>
</g>
</svg>
