<?xml version="1.0" encoding="iso-8859-1"?>
<!-- Generator: Adobe Illustrator 18.0.0, SVG Export Plug-In . SVG Version: 6.00 Build 0)  -->
<!DOCTYPE svg PUBLIC "-//W3C//DTD SVG 1.1//EN" "http://www.w3.org/Graphics/SVG/1.1/DTD/svg11.dtd">
<svg version="1.1" id="Capa_1" xmlns="http://www.w3.org/2000/svg" xmlns:xlink="http://www.w3.org/1999/xlink" x="0px" y="0px"
	 viewBox="0 0 314.63 314.63" style="enable-background:new 0 0 314.63 314.63;" xml:space="preserve">
<path d="M207.064,5.635h-99.499C48.162,5.635,0,53.798,0,113.21v18.222c0,59.409,48.162,107.571,107.565,107.571h20.349
	l53.119,69.991l52.921-73.38c46.398-11.942,80.675-54.057,80.675-104.183V113.21C314.63,53.798,266.472,5.635,207.064,5.635z
	 M109.017,149.986c-15.282,0-27.667-12.39-27.667-27.666s12.384-27.663,27.667-27.663c15.28,0,27.662,12.387,27.662,27.663
	S124.297,149.986,109.017,149.986z M205.612,149.986c-15.275,0-27.656-12.39-27.656-27.666s12.382-27.663,27.656-27.663
	c15.279,0,27.673,12.387,27.673,27.663S220.892,149.986,205.612,149.986z"/>
<g>
</g>
<g>
</g>
<g>
</g>
<g>
</g>
<g>
</g>
<g>
</g>
<g>
</g>
<g>
</g>
<g>
</g>
<g>
</g>
<g>
</g>
<g>
</g>
<g>
</g>
<g>
</g>
<g>
</g>
</svg>
