<?xml version="1.0" encoding="iso-8859-1"?>
<!-- Generator: Adobe Illustrator 18.0.0, SVG Export Plug-In . SVG Version: 6.00 Build 0)  -->
<!DOCTYPE svg PUBLIC "-//W3C//DTD SVG 1.1//EN" "http://www.w3.org/Graphics/SVG/1.1/DTD/svg11.dtd">
<svg version="1.1" id="Capa_1" xmlns="http://www.w3.org/2000/svg" xmlns:xlink="http://www.w3.org/1999/xlink" x="0px" y="0px"
	 viewBox="0 0 358.846 358.846" style="enable-background:new 0 0 358.846 358.846;" xml:space="preserve">
<g>
	<path d="M177.03,224.563c-34.676,0-67.462-6.837-92.322-19.265c-2.201-1.101-4.313-2.24-6.347-3.411v55.911
		c0,55.811,45.242,101.048,101.06,101.048c55.82,0,101.064-45.236,101.064-101.048v-58.84c-3.457,2.216-7.154,4.332-11.143,6.34
		C244.495,217.726,211.707,224.563,177.03,224.563z"/>
	<path d="M188.31,34.083V0h-17.772v34.083C118.882,38.6,78.361,81.946,78.361,134.751v38.438
		c17.906,15.389,53.586,27.782,98.669,27.782c49.543,0,87.736-14.959,103.454-32.422v-33.799
		C280.484,81.946,239.964,38.6,188.31,34.083z M198.229,145.505c0,10.387-8.419,18.797-18.807,18.797
		c-10.388,0-18.804-8.41-18.804-18.797V93.176c0-10.384,8.416-18.795,18.804-18.795c10.388,0,18.807,8.411,18.807,18.795V145.505z"
		/>
</g>
<g>
</g>
<g>
</g>
<g>
</g>
<g>
</g>
<g>
</g>
<g>
</g>
<g>
</g>
<g>
</g>
<g>
</g>
<g>
</g>
<g>
</g>
<g>
</g>
<g>
</g>
<g>
</g>
<g>
</g>
</svg>
