<?xml version="1.0" encoding="iso-8859-1"?>
<!-- Generator: Adobe Illustrator 18.0.0, SVG Export Plug-In . SVG Version: 6.00 Build 0)  -->
<!DOCTYPE svg PUBLIC "-//W3C//DTD SVG 1.1//EN" "http://www.w3.org/Graphics/SVG/1.1/DTD/svg11.dtd">
<svg version="1.1" id="Capa_1" xmlns="http://www.w3.org/2000/svg" xmlns:xlink="http://www.w3.org/1999/xlink" x="0px" y="0px"
	 viewBox="0 0 361.484 361.484" style="enable-background:new 0 0 361.484 361.484;" xml:space="preserve">
<path d="M286.399,144.61v-38.95C286.399,47.397,239.001,0,180.736,0C122.483,0,75.079,47.397,75.079,105.66v38.95H47.996v216.874
	h265.492V144.61H286.399z M123.845,105.66c0-31.374,25.529-56.896,56.892-56.896c31.373,0,56.898,25.521,56.898,56.896v38.95
	h-113.79V105.66z M192.418,286.478v36.283h-23.351v-36.283c-5.917-3.834-9.833-10.485-9.833-18.062
	c0-11.876,9.627-21.51,21.504-21.51c11.886,0,21.512,9.634,21.512,21.51C202.25,275.992,198.329,282.644,192.418,286.478z"/>
<g>
</g>
<g>
</g>
<g>
</g>
<g>
</g>
<g>
</g>
<g>
</g>
<g>
</g>
<g>
</g>
<g>
</g>
<g>
</g>
<g>
</g>
<g>
</g>
<g>
</g>
<g>
</g>
<g>
</g>
</svg>
