<?xml version="1.0" encoding="iso-8859-1"?>
<!-- Generator: Adobe Illustrator 18.0.0, SVG Export Plug-In . SVG Version: 6.00 Build 0)  -->
<!DOCTYPE svg PUBLIC "-//W3C//DTD SVG 1.1//EN" "http://www.w3.org/Graphics/SVG/1.1/DTD/svg11.dtd">
<svg version="1.1" id="Capa_1" xmlns="http://www.w3.org/2000/svg" xmlns:xlink="http://www.w3.org/1999/xlink" x="0px" y="0px"
	 viewBox="0 0 351.233 351.233" style="enable-background:new 0 0 351.233 351.233;" xml:space="preserve">
<path d="M351.23,74.586L276.645,0l-54.208,54.211L202.44,34.234L6.37,230.298c-8.49,8.492-8.488,22.256,0,30.765l83.811,83.81
	c8.498,8.48,22.27,8.48,30.758,0.002l196.07-196.075l-19.984-20.005L351.23,74.586z M209.171,170.32l-75.926,75.94
	c-7.808,7.799-20.459,7.799-28.264,0.001c-7.799-7.822-7.799-20.471,0-28.27l75.936-75.934c7.799-7.806,20.447-7.804,28.253,0
	C216.975,149.876,216.976,162.525,209.171,170.32z M243.131,54.153l15.64-15.642l21.271,21.272l-15.641,15.647L243.131,54.153z
	 M291.447,71.192l21.272,21.279l-15.631,15.627L275.81,86.841L291.447,71.192z"/>
<g>
</g>
<g>
</g>
<g>
</g>
<g>
</g>
<g>
</g>
<g>
</g>
<g>
</g>
<g>
</g>
<g>
</g>
<g>
</g>
<g>
</g>
<g>
</g>
<g>
</g>
<g>
</g>
<g>
</g>
</svg>
