<?xml version="1.0" encoding="iso-8859-1"?>
<!-- Generator: Adobe Illustrator 18.0.0, SVG Export Plug-In . SVG Version: 6.00 Build 0)  -->
<!DOCTYPE svg PUBLIC "-//W3C//DTD SVG 1.1//EN" "http://www.w3.org/Graphics/SVG/1.1/DTD/svg11.dtd">
<svg version="1.1" id="Capa_1" xmlns="http://www.w3.org/2000/svg" xmlns:xlink="http://www.w3.org/1999/xlink" x="0px" y="0px"
	 viewBox="0 0 324.293 324.293" style="enable-background:new 0 0 324.293 324.293;" xml:space="preserve">
<g>
	<rect x="140.392" y="0" width="43.52" height="129.932"/>
	<path d="M212.917,32.32l-7.273-2.627v46.498l3.069,1.494c36.659,17.801,60.35,55.566,60.35,96.195
		c0,58.957-47.967,106.898-106.902,106.898c-58.959,0-106.908-47.941-106.908-106.898c0-40.629,23.692-78.395,60.355-96.195
		l3.045-1.494V29.693l-7.271,2.627c-59.595,21.43-99.635,78.328-99.635,141.561c0,82.945,67.469,150.412,150.414,150.412
		c82.92,0,150.387-67.467,150.387-150.412C312.547,110.648,272.509,53.75,212.917,32.32z"/>
</g>
<g>
</g>
<g>
</g>
<g>
</g>
<g>
</g>
<g>
</g>
<g>
</g>
<g>
</g>
<g>
</g>
<g>
</g>
<g>
</g>
<g>
</g>
<g>
</g>
<g>
</g>
<g>
</g>
<g>
</g>
</svg>
