<?xml version="1.0" encoding="iso-8859-1"?>
<!-- Generator: Adobe Illustrator 18.0.0, SVG Export Plug-In . SVG Version: 6.00 Build 0)  -->
<!DOCTYPE svg PUBLIC "-//W3C//DTD SVG 1.1//EN" "http://www.w3.org/Graphics/SVG/1.1/DTD/svg11.dtd">
<svg version="1.1" id="Capa_1" xmlns="http://www.w3.org/2000/svg" xmlns:xlink="http://www.w3.org/1999/xlink" x="0px" y="0px"
	 viewBox="0 0 315.346 315.346" style="enable-background:new 0 0 315.346 315.346;" xml:space="preserve">
<path d="M85.009,33.091v204.903c-2.365,0.14-4.807,0.379-7.266,0.795c-27.385,4.478-49.59,25.068-49.59,45.971
	c0,20.896,22.205,34.197,49.59,29.718c47.168-7.717,49.564-41.811,49.564-46.178c0-4.364,0-174.629,0-174.629l117.586-19.245
	v111.773c-2.332,0.111-4.738,0.373-7.168,0.761c-27.387,4.481-49.59,25.065-49.59,45.962c0,20.902,22.203,34.232,49.59,29.73
	c43.135-7.045,49.467-39.191,49.467-48.308V0L85.009,33.091z"/>
<g>
</g>
<g>
</g>
<g>
</g>
<g>
</g>
<g>
</g>
<g>
</g>
<g>
</g>
<g>
</g>
<g>
</g>
<g>
</g>
<g>
</g>
<g>
</g>
<g>
</g>
<g>
</g>
<g>
</g>
</svg>
