<?xml version="1.0" encoding="iso-8859-1"?>
<!-- Generator: Adobe Illustrator 18.0.0, SVG Export Plug-In . SVG Version: 6.00 Build 0)  -->
<!DOCTYPE svg PUBLIC "-//W3C//DTD SVG 1.1//EN" "http://www.w3.org/Graphics/SVG/1.1/DTD/svg11.dtd">
<svg version="1.1" id="Capa_1" xmlns="http://www.w3.org/2000/svg" xmlns:xlink="http://www.w3.org/1999/xlink" x="0px" y="0px"
	 viewBox="0 0 313.129 313.129" style="enable-background:new 0 0 313.129 313.129;" xml:space="preserve">
<path d="M313.111,138.296V87.95h-50.326v10.781h-48.408v-48.37h10.803V0h-50.343v10.798H50.343V0H0.018v50.361h10.786v124.468H0.018
	v50.348h50.325v-10.782h48.373v48.37H87.932v50.364h50.372v-10.801h124.481v10.801h50.326v-50.364h-10.778V138.296H313.111z
	 M50.343,185.623v-10.794H39.563V50.361h10.779V39.561h124.494v10.801h10.775v48.37h-47.309V87.95H87.932v50.347h10.784v47.326
	H50.343z M174.837,174.829v10.794h-47.32v-47.326h10.787v-10.79h47.309v47.323H174.837z M273.57,262.765h-10.785v10.802H138.304
	v-10.802h-10.787v-48.37h47.32v10.782h50.343v-50.348h-10.803v-47.323h48.408v10.79h10.785V262.765z"/>
<g>
</g>
<g>
</g>
<g>
</g>
<g>
</g>
<g>
</g>
<g>
</g>
<g>
</g>
<g>
</g>
<g>
</g>
<g>
</g>
<g>
</g>
<g>
</g>
<g>
</g>
<g>
</g>
<g>
</g>
</svg>
