<?xml version="1.0" encoding="iso-8859-1"?>
<!-- Generator: Adobe Illustrator 18.0.0, SVG Export Plug-In . SVG Version: 6.00 Build 0)  -->
<!DOCTYPE svg PUBLIC "-//W3C//DTD SVG 1.1//EN" "http://www.w3.org/Graphics/SVG/1.1/DTD/svg11.dtd">
<svg version="1.1" id="Capa_1" xmlns="http://www.w3.org/2000/svg" xmlns:xlink="http://www.w3.org/1999/xlink" x="0px" y="0px"
	 viewBox="0 0 337.769 337.769" style="enable-background:new 0 0 337.769 337.769;" xml:space="preserve">
<g>
	<path d="M296.173,73.724c-0.418-21.878-15.254-41.44-41.905-55.183c-23.045-11.862-53.283-18.453-85.157-18.54
		c-31.858-0.074-62.132,6.337-85.236,18.085c-27.067,13.763-42.046,33.549-42.23,55.756c0,0.034-0.012,0.076-0.008,0.116
		l-0.042,15.271c-0.015,7.032,5.667,12.733,12.699,12.754l50.273,0.151c7.033,0.017,12.748-5.664,12.767-12.7l0.039-15.28
		c0.017-7.025,12.8-27.156,51.622-27.059c38.812,0.106,51.495,19.839,51.476,26.874l-0.047,15.27
		c-0.022,7.026,5.668,12.731,12.692,12.756l50.279,0.143c7.022,0.021,12.747-5.662,12.764-12.698
		C296.158,89.439,296.178,73.867,296.173,73.724z"/>
	<rect x="58.185" y="119.932" width="57.624" height="57.627"/>
	<rect x="140.074" y="119.932" width="57.62" height="57.627"/>
	<rect x="221.957" y="119.932" width="57.63" height="57.627"/>
	<rect x="58.185" y="200.045" width="57.624" height="57.627"/>
	<rect x="140.074" y="200.045" width="57.62" height="57.627"/>
	<rect x="221.957" y="200.045" width="57.63" height="57.627"/>
	<rect x="58.185" y="280.152" width="57.624" height="57.617"/>
	<rect x="140.074" y="280.152" width="57.62" height="57.617"/>
	<rect x="221.957" y="280.152" width="57.63" height="57.617"/>
</g>
<g>
</g>
<g>
</g>
<g>
</g>
<g>
</g>
<g>
</g>
<g>
</g>
<g>
</g>
<g>
</g>
<g>
</g>
<g>
</g>
<g>
</g>
<g>
</g>
<g>
</g>
<g>
</g>
<g>
</g>
</svg>
