<?xml version="1.0" encoding="iso-8859-1"?>
<!-- Generator: Adobe Illustrator 18.0.0, SVG Export Plug-In . SVG Version: 6.00 Build 0)  -->
<!DOCTYPE svg PUBLIC "-//W3C//DTD SVG 1.1//EN" "http://www.w3.org/Graphics/SVG/1.1/DTD/svg11.dtd">
<svg version="1.1" id="Capa_1" xmlns="http://www.w3.org/2000/svg" xmlns:xlink="http://www.w3.org/1999/xlink" x="0px" y="0px"
	 viewBox="0 0 326.498 326.498" style="enable-background:new 0 0 326.498 326.498;" xml:space="preserve">
<path d="M212.412,90.062h-98.322c-7.656,0-13.893-6.226-13.893-13.906V58.938c0-7.672,6.237-13.903,13.893-13.903h98.322
	c7.678,0,13.91,6.232,13.91,13.903h45.025C271.346,26.44,244.912,0,212.412,0h-98.322C81.59,0,55.152,26.44,55.152,58.938v17.217
	c0,13.761,4.74,26.382,12.654,36.419c-7.914,10.041-12.654,22.698-12.654,36.423v28.515c0,32.485,26.439,58.933,58.938,58.933
	h98.322c7.678,0,13.91,6.23,13.91,13.865v17.254c0,7.678-6.232,13.91-13.91,13.91h-98.322c-7.656,0-13.893-6.232-13.893-13.91
	H55.152c0,32.503,26.439,58.934,58.938,58.934h98.322c32.5,0,58.935-26.432,58.935-58.934v-17.254
	c0-13.718-4.728-26.361-12.647-36.383c7.919-10.034,12.647-22.7,12.647-36.415v-28.515
	C271.346,116.493,244.912,90.062,212.412,90.062z M114.089,191.407c-7.656,0-13.893-6.26-13.893-13.895v-28.515
	c0-7.678,6.237-13.911,13.893-13.911h98.322c7.678,0,13.91,6.233,13.91,13.911v28.515c0,7.636-6.232,13.895-13.91,13.895H114.089z"
	/>
<g>
</g>
<g>
</g>
<g>
</g>
<g>
</g>
<g>
</g>
<g>
</g>
<g>
</g>
<g>
</g>
<g>
</g>
<g>
</g>
<g>
</g>
<g>
</g>
<g>
</g>
<g>
</g>
<g>
</g>
</svg>
