<?xml version="1.0" encoding="iso-8859-1"?>
<!-- Generator: Adobe Illustrator 18.0.0, SVG Export Plug-In . SVG Version: 6.00 Build 0)  -->
<!DOCTYPE svg PUBLIC "-//W3C//DTD SVG 1.1//EN" "http://www.w3.org/Graphics/SVG/1.1/DTD/svg11.dtd">
<svg version="1.1" id="Capa_1" xmlns="http://www.w3.org/2000/svg" xmlns:xlink="http://www.w3.org/1999/xlink" x="0px" y="0px"
	 viewBox="0 0 335.441 335.441" style="enable-background:new 0 0 335.441 335.441;" xml:space="preserve">
<g>
	<path d="M300.417,195.412c2.415-7.954,4.13-16.21,5.075-24.698h-80.347c-6.851,25.302-29.96,43.927-57.425,43.927
		c-27.464,0-50.58-18.625-57.425-43.927H29.947c0.943,8.488,2.66,16.744,5.072,24.698L0,215.637l31.472,54.529l35.058-20.242
		c7.576,8.088,16.112,15.263,25.423,21.348l-13.84,38.026l59.171,21.535l13.839-38.025c5.443,0.649,10.982,0.987,16.599,0.987
		c5.611,0,11.154-0.338,16.591-0.987l13.845,38.024l59.174-21.533l-13.848-38.028c9.311-6.086,17.853-13.26,25.423-21.347
		l35.058,20.242l31.479-54.531L300.417,195.412z"/>
	<polygon points="139.869,170.715 195.573,170.715 195.573,87.753 225.966,87.753 167.722,4.608 109.47,87.754 139.869,87.754 	"/>
</g>
<g>
</g>
<g>
</g>
<g>
</g>
<g>
</g>
<g>
</g>
<g>
</g>
<g>
</g>
<g>
</g>
<g>
</g>
<g>
</g>
<g>
</g>
<g>
</g>
<g>
</g>
<g>
</g>
<g>
</g>
</svg>
