<?xml version="1.0" encoding="iso-8859-1"?>
<!-- Generator: Adobe Illustrator 18.0.0, SVG Export Plug-In . SVG Version: 6.00 Build 0)  -->
<!DOCTYPE svg PUBLIC "-//W3C//DTD SVG 1.1//EN" "http://www.w3.org/Graphics/SVG/1.1/DTD/svg11.dtd">
<svg version="1.1" id="Capa_1" xmlns="http://www.w3.org/2000/svg" xmlns:xlink="http://www.w3.org/1999/xlink" x="0px" y="0px"
	 viewBox="0 0 316.618 316.618" style="enable-background:new 0 0 316.618 316.618;" xml:space="preserve">
<g>
	<path d="M0,6.075v304.469h316.618V6.075H0z M175.183,33.817h37.512v32.072h-37.512V33.817z M103.924,33.817h37.513v32.072h-37.513
		V33.817z M70.18,282.795H32.664v-32.076H70.18V282.795z M70.18,65.889H32.664V33.817H70.18V65.889z M141.436,282.795h-37.513
		v-32.076h37.513V282.795z M212.695,282.795h-37.512v-32.076h37.512V282.795z M158.309,214.549
		c-31.067,0-56.251-25.182-56.251-56.236c0-31.068,25.184-56.254,56.251-56.254c31.071,0,56.253,25.186,56.253,56.254
		C214.561,189.368,189.38,214.549,158.309,214.549z M283.957,282.795H246.44v-32.076h37.517V282.795z M283.957,65.889H246.44V33.817
		h37.517V65.889z"/>
	<g>
		<polygon points="145.474,126.211 145.474,190.393 186.929,158.313 		"/>
	</g>
</g>
<g>
</g>
<g>
</g>
<g>
</g>
<g>
</g>
<g>
</g>
<g>
</g>
<g>
</g>
<g>
</g>
<g>
</g>
<g>
</g>
<g>
</g>
<g>
</g>
<g>
</g>
<g>
</g>
<g>
</g>
</svg>
