<?xml version="1.0" encoding="iso-8859-1"?>
<!-- Generator: Adobe Illustrator 18.0.0, SVG Export Plug-In . SVG Version: 6.00 Build 0)  -->
<!DOCTYPE svg PUBLIC "-//W3C//DTD SVG 1.1//EN" "http://www.w3.org/Graphics/SVG/1.1/DTD/svg11.dtd">
<svg version="1.1" id="Capa_1" xmlns="http://www.w3.org/2000/svg" xmlns:xlink="http://www.w3.org/1999/xlink" x="0px" y="0px"
	 viewBox="0 0 355.098 355.098" style="enable-background:new 0 0 355.098 355.098;" xml:space="preserve">
<g>
	<path d="M0,25.309v304.479h355.098V25.309H0z M263.978,48.659c7.076,0,12.826,5.74,12.826,12.821
		c0,7.084-5.75,12.826-12.826,12.826c-7.076,0-12.828-5.742-12.828-12.826C251.15,54.399,256.902,48.659,263.978,48.659z
		 M214.658,48.659c7.078,0,12.828,5.74,12.828,12.821c0,7.084-5.75,12.826-12.828,12.826c-7.076,0-12.826-5.742-12.826-12.826
		C201.832,54.399,207.582,48.659,214.658,48.659z M319.582,296.327H35.498V105.708h284.084V296.327z M313.301,74.307
		c-7.08,0-12.832-5.742-12.832-12.826c0-7.081,5.752-12.821,12.832-12.821c7.072,0,12.822,5.74,12.822,12.821
		C326.123,68.564,320.373,74.307,313.301,74.307z"/>
	<polygon points="147.688,193.491 152.445,188.743 164.891,201.176 160.289,205.765 224.514,269.976 247.145,247.352 
		182.93,183.133 178.334,187.725 165.893,175.289 170.635,170.537 162.246,139.197 130.908,130.786 126.447,135.227 
		148.359,157.145 134.311,171.215 112.398,149.299 107.955,153.742 116.35,185.09 	"/>
</g>
<g>
</g>
<g>
</g>
<g>
</g>
<g>
</g>
<g>
</g>
<g>
</g>
<g>
</g>
<g>
</g>
<g>
</g>
<g>
</g>
<g>
</g>
<g>
</g>
<g>
</g>
<g>
</g>
<g>
</g>
</svg>
