<?xml version="1.0" encoding="iso-8859-1"?>
<!-- Generator: Adobe Illustrator 18.0.0, SVG Export Plug-In . SVG Version: 6.00 Build 0)  -->
<!DOCTYPE svg PUBLIC "-//W3C//DTD SVG 1.1//EN" "http://www.w3.org/Graphics/SVG/1.1/DTD/svg11.dtd">
<svg version="1.1" id="Capa_1" xmlns="http://www.w3.org/2000/svg" xmlns:xlink="http://www.w3.org/1999/xlink" x="0px" y="0px"
	 viewBox="0 0 323.331 323.331" style="enable-background:new 0 0 323.331 323.331;" xml:space="preserve">
<g>
	<path d="M40.893,121.998v59.461c55.669,0,100.979,45.303,100.979,100.99h59.452C201.324,193.977,129.352,121.998,40.893,121.998z"
		/>
	<path d="M240.602,82.726C187.27,29.38,116.325,0,40.893,0v59.464c122.946,0,222.985,100.031,222.985,222.986h59.449
		C323.328,207,293.958,136.07,240.602,82.726z"/>
	<path d="M40.893,241.57c-22.597,0-40.89,18.298-40.89,40.88c0,22.574,18.293,40.881,40.89,40.881
		c22.572,0,40.866-18.307,40.866-40.881C81.759,259.869,63.465,241.57,40.893,241.57z"/>
</g>
<g>
</g>
<g>
</g>
<g>
</g>
<g>
</g>
<g>
</g>
<g>
</g>
<g>
</g>
<g>
</g>
<g>
</g>
<g>
</g>
<g>
</g>
<g>
</g>
<g>
</g>
<g>
</g>
<g>
</g>
</svg>
